{"glyphs":{"0":{"ha":776,"x_min":64,"x_max":719,"o":"m 65 558 q 147 867 82 756 q 383 996 211 979 q 613 882 522 988 q 711 514 703 776 q 644 130 719 292 q 372 -32 569 -32 q 144 95 210 -37 q 67 390 79 228 q 64 476 64 433 q 65 558 64 518 l 65 558 m 186 503 q 187 484 186 493 q 188 467 188 475 q 224 206 196 315 q 383 88 251 96 q 516 160 472 88 q 576 318 560 232 q 588 399 585 360 q 590 471 590 439 q 532 774 590 683 q 383 864 474 864 q 240 772 286 871 q 188 554 194 674 q 187 528 188 542 q 186 503 186 515 l 186 503 z "},"1":{"ha":776,"x_min":142,"x_max":481,"o":"m 361 0 l 361 700 l 142 700 l 142 810 q 186 812 163 810 q 235 819 210 814 q 335 872 289 832 q 393 996 382 911 l 481 996 l 481 0 l 361 0 l 361 0 z "},"2":{"ha":776,"x_min":42,"x_max":729,"o":"m 54 0 q 128 274 42 185 q 322 421 215 363 q 351 437 336 429 q 379 451 365 444 q 522 547 460 496 q 590 689 583 599 q 528 823 590 775 q 393 871 467 871 q 255 815 317 871 q 197 635 193 758 l 76 635 q 74 656 75 646 q 74 676 74 667 q 74 680 74 678 q 74 685 74 682 q 160 891 76 797 q 404 985 243 985 q 427 984 415 985 q 451 982 439 983 q 643 893 557 968 q 722 678 729 818 q 631 482 713 549 q 450 361 549 415 q 442 358 446 360 q 436 354 439 356 q 283 259 356 311 q 175 121 211 207 l 700 121 l 700 0 l 54 0 l 54 0 z "},"3":{"ha":776,"x_min":33,"x_max":700,"o":"m 568 229 q 572 258 571 244 q 572 282 572 271 q 506 417 572 389 q 360 449 439 446 q 333 449 346 449 q 306 449 319 449 l 306 558 q 485 592 428 553 q 543 700 543 631 q 539 742 543 719 q 525 788 535 764 q 466 849 508 828 q 375 871 424 871 q 367 871 371 871 q 358 871 363 871 q 236 817 292 865 q 186 667 181 768 l 65 667 q 65 680 65 674 q 64 693 64 686 q 131 894 64 803 q 361 985 197 985 q 597 910 525 985 q 676 747 669 836 q 676 737 676 742 q 676 728 676 732 q 644 596 676 657 q 558 514 611 535 q 577 503 568 508 q 594 494 586 499 q 683 399 667 451 q 700 251 700 347 q 695 203 700 229 q 679 153 690 178 q 578 26 651 83 q 372 -32 504 -32 q 149 26 242 -39 q 33 296 57 90 l 153 296 q 219 130 160 178 q 349 82 278 82 q 352 82 350 82 q 357 82 354 82 q 502 129 436 85 q 568 229 568 174 l 568 229 z "},"4":{"ha":776,"x_min":43,"x_max":733,"o":"m 43 372 l 492 985 l 590 985 l 590 361 l 733 361 l 733 240 l 590 240 l 590 0 l 471 0 l 471 240 l 43 240 l 43 372 l 43 372 m 164 361 l 471 361 l 471 788 l 164 361 l 164 361 z "},"5":{"ha":776,"x_min":54,"x_max":726,"o":"m 54 251 l 175 251 q 253 122 197 163 q 374 82 310 82 q 519 135 453 81 q 590 285 586 190 q 531 472 596 417 q 383 528 465 528 q 378 528 381 528 q 375 528 376 528 q 274 505 322 526 q 197 449 226 483 l 88 449 l 164 985 l 667 985 l 667 853 l 263 853 q 246 722 254 788 q 229 590 238 656 q 297 633 251 618 q 397 649 342 649 q 432 647 414 649 q 468 642 450 646 q 646 550 565 624 q 722 328 726 476 q 642 78 722 189 q 372 -32 561 -32 q 148 45 242 -39 q 54 251 54 129 l 54 251 z "},"6":{"ha":776,"x_min":49,"x_max":721,"o":"m 65 449 q 69 556 65 489 q 93 696 74 624 q 193 887 121 799 q 415 985 265 975 q 440 983 428 985 q 464 981 451 982 q 626 898 553 965 q 700 722 700 831 l 579 722 q 522 838 569 796 q 414 879 474 879 q 400 878 407 879 q 386 876 393 878 q 249 773 311 864 q 186 492 186 682 q 203 515 190 501 q 236 544 217 529 q 319 589 269 568 q 426 610 368 610 q 480 604 453 610 q 535 586 507 599 q 608 539 571 569 q 678 460 644 508 q 697 418 689 439 q 710 376 704 397 q 718 333 715 354 q 721 292 721 313 q 634 63 721 161 q 415 -42 547 -36 q 146 84 243 -50 q 65 449 49 218 l 65 449 m 197 285 q 256 133 193 189 q 393 72 318 76 q 399 72 396 72 q 404 72 401 72 q 533 125 475 72 q 590 296 590 178 q 533 447 590 399 q 407 496 476 494 q 401 496 404 496 q 396 496 399 496 q 259 438 321 492 q 197 285 197 383 l 197 285 z "},"7":{"ha":776,"x_min":65,"x_max":733,"o":"m 197 0 q 276 285 221 147 q 392 536 331 422 q 513 744 456 656 q 590 875 569 833 l 65 875 l 65 985 l 733 985 l 733 875 q 692 818 713 846 q 653 763 672 790 q 476 463 557 626 q 328 0 396 300 l 197 0 l 197 0 z "},"8":{"ha":776,"x_min":49,"x_max":718,"o":"m 208 525 q 115 610 146 557 q 85 724 85 664 q 85 735 85 729 q 86 746 85 740 q 174 918 93 840 q 404 996 254 996 q 613 908 547 978 q 683 757 678 838 q 685 747 685 751 q 685 738 685 742 q 651 610 685 669 q 558 525 617 550 q 675 428 632 500 q 718 272 718 356 q 718 261 718 267 q 717 251 718 256 q 629 65 710 150 q 372 -32 549 -19 q 125 69 201 -18 q 49 257 49 156 q 49 260 49 258 q 49 265 49 263 q 93 415 51 343 q 208 525 135 486 l 208 525 m 175 285 q 238 140 175 188 q 378 92 301 92 q 380 92 379 92 q 382 92 381 92 q 519 139 457 92 q 582 278 582 186 q 582 297 582 288 q 579 317 582 307 q 507 426 561 392 q 390 463 453 461 q 385 463 388 463 q 382 463 383 463 q 247 413 308 460 q 175 285 185 367 l 175 285 m 208 733 q 267 612 215 650 q 378 574 318 574 q 380 574 379 574 q 382 574 381 574 q 497 613 444 575 q 549 718 549 651 q 549 731 550 725 q 547 743 549 738 q 497 842 547 808 q 386 878 447 876 q 381 878 383 878 q 378 878 379 878 q 267 840 318 875 q 208 733 217 804 l 208 733 z "},"9":{"ha":776,"x_min":54,"x_max":717,"o":"m 54 624 q 130 879 54 779 q 361 996 206 979 q 587 909 514 996 q 686 717 660 822 q 703 634 697 675 q 711 558 708 593 q 715 510 714 533 q 715 464 715 488 q 617 104 717 222 q 396 -32 517 -14 q 374 -34 385 -33 q 351 -35 363 -35 q 160 35 244 -35 q 76 229 76 106 l 197 229 q 257 122 211 160 q 360 85 303 85 q 377 85 368 85 q 394 89 386 86 q 532 191 469 104 q 590 449 594 278 q 494 369 547 397 q 385 336 440 342 q 370 335 378 336 q 356 335 363 335 q 159 409 249 333 q 54 624 69 485 l 54 624 m 175 667 q 240 501 179 554 q 372 447 300 447 q 374 447 374 447 q 376 447 375 447 q 522 511 457 449 q 579 689 588 574 q 505 829 564 783 q 378 875 446 875 q 242 822 304 875 q 175 667 179 769 l 175 667 z "}," ":{"ha":383,"x_min":0,"x_max":0,"o":""},"!":{"ha":383,"x_min":175,"x_max":296,"o":"m 175 0 l 175 153 l 296 153 l 296 0 l 175 0 l 175 0 m 175 503 l 175 1017 l 296 1017 l 296 503 l 263 229 l 208 229 l 175 503 l 175 503 z "},"\"":{"ha":492,"x_min":76,"x_max":438,"o":"m 175 624 l 121 624 l 76 799 l 76 974 l 208 974 l 208 799 l 175 624 l 175 624 m 306 799 l 306 974 l 438 974 l 438 799 l 393 624 l 339 624 l 306 799 l 306 799 z "},"#":{"ha":776,"x_min":22,"x_max":754,"o":"m 153 263 l 22 263 l 22 383 l 186 383 l 218 590 l 65 590 l 65 711 l 240 711 l 285 974 l 393 974 l 350 711 l 514 711 l 558 974 l 667 974 l 624 711 l 754 711 l 754 590 l 601 590 l 568 383 l 700 383 l 700 263 l 547 263 l 492 -22 l 383 -22 l 438 263 l 263 263 l 208 -22 l 99 -22 l 153 263 l 153 263 m 328 590 l 296 383 l 460 383 l 492 590 l 328 590 l 328 590 z "},"$":{"ha":776,"x_min":49,"x_max":733,"o":"m 76 754 q 83 789 79 771 q 94 825 88 807 q 172 926 117 879 q 339 985 228 972 l 339 1061 l 426 1061 q 426 1018 426 1036 q 426 985 426 1000 q 625 906 550 985 q 700 711 700 826 l 579 711 q 580 716 579 714 q 581 721 581 718 q 581 726 581 724 q 581 731 581 728 q 581 734 581 732 q 581 739 581 736 q 539 832 578 789 q 426 875 500 875 l 426 547 q 474 533 426 543 q 581 496 522 524 q 683 419 636 468 q 733 285 729 369 q 669 77 733 150 q 529 -19 606 4 q 476 -31 503 -28 q 426 -32 450 -33 l 426 -175 l 339 -175 l 339 -33 q 285 -28 315 -32 q 224 -12 256 -24 q 103 78 157 11 q 54 285 49 146 q 76 285 64 285 q 100 285 88 285 q 137 285 119 285 q 164 285 154 285 q 164 282 164 283 q 164 278 164 281 q 165 236 164 264 q 178 178 167 208 q 228 103 192 138 q 339 65 264 69 l 339 426 q 288 443 325 433 q 208 474 250 453 q 115 550 157 499 q 72 694 72 601 q 74 723 72 708 q 76 754 75 738 l 76 754 m 426 415 l 426 65 q 551 122 496 65 q 607 246 606 178 q 607 248 607 247 q 607 250 607 249 q 607 253 607 251 q 607 257 607 256 q 563 350 604 306 q 426 415 522 394 l 426 415 m 186 754 q 184 742 185 749 q 183 729 183 736 q 183 724 183 726 q 182 718 182 721 q 230 611 182 649 q 335 560 278 574 q 337 559 336 560 q 339 558 338 558 l 339 875 q 333 876 336 876 q 326 876 329 876 q 300 873 314 876 q 272 863 286 869 q 221 820 246 847 q 186 754 196 793 l 186 754 z "},"%":{"ha":1236,"x_min":31,"x_max":1183,"o":"m 274 -33 l 831 985 l 940 985 l 383 -33 l 274 -33 l 274 -33 m 886 438 q 905 440 896 439 q 922 442 914 440 q 931 442 926 442 q 940 442 936 442 q 1124 369 1064 442 q 1183 208 1183 296 q 1183 206 1183 207 q 1183 204 1183 206 q 1120 40 1182 114 q 940 -32 1058 -35 q 764 38 826 -32 q 701 197 701 108 q 701 208 701 203 q 703 217 701 213 q 753 346 708 285 q 886 438 797 407 l 886 438 m 810 186 q 857 99 817 128 q 944 69 897 69 q 1040 105 997 69 q 1083 208 1083 140 q 1037 305 1079 272 q 944 338 994 338 q 849 300 892 338 q 810 186 806 263 l 810 186 m 263 951 q 448 870 390 943 q 507 710 506 797 q 507 706 507 708 q 507 701 507 704 q 443 535 504 611 q 274 460 382 460 q 91 540 151 467 q 31 700 31 613 q 31 703 31 701 q 31 704 31 704 q 91 865 32 792 q 263 951 150 939 l 263 951 m 274 842 q 168 795 201 835 q 135 708 135 756 q 135 706 135 707 q 135 704 135 706 q 176 608 136 651 q 285 568 215 564 q 378 622 350 583 q 407 703 407 660 q 372 795 407 753 q 274 842 336 838 l 274 842 z "},"&":{"ha":929,"x_min":74,"x_max":897,"o":"m 76 218 q 76 226 76 222 q 75 236 75 231 q 75 244 75 240 q 75 253 75 249 q 119 402 74 326 q 296 558 164 478 q 233 631 257 592 q 199 710 208 671 q 191 743 193 726 q 189 776 189 760 q 250 930 189 864 q 426 996 311 996 q 594 931 536 996 q 653 782 653 865 q 652 769 653 775 q 651 756 651 763 q 597 628 644 689 q 460 536 550 568 l 646 306 q 671 378 664 343 q 682 439 678 413 q 685 456 683 449 q 689 471 686 464 l 799 471 q 799 467 799 469 q 800 463 800 464 q 800 458 800 460 q 800 453 800 456 q 794 405 800 431 q 781 353 789 379 q 766 313 774 332 q 750 275 758 293 q 736 244 743 258 q 722 218 729 229 l 897 0 l 733 0 l 646 110 q 535 12 600 46 q 400 -31 469 -22 q 382 -31 392 -31 q 363 -32 372 -32 q 168 32 254 -32 q 76 218 82 96 l 76 218 m 579 197 l 361 471 q 263 399 300 439 q 211 319 226 360 q 201 283 204 301 q 197 249 197 265 q 242 133 196 181 q 361 85 289 85 q 465 110 410 83 q 579 197 521 138 l 579 197 m 404 624 q 488 680 457 644 q 531 753 519 715 q 533 769 532 761 q 535 785 535 776 q 508 857 535 825 q 426 897 481 889 q 337 862 364 893 q 308 789 310 831 q 310 772 308 781 q 313 753 311 763 q 345 680 321 715 q 404 624 369 644 l 404 624 z "},"'":{"ha":306,"x_min":76,"x_max":208,"o":"m 142 842 l 76 842 l 76 985 l 208 985 l 208 842 q 183 720 208 776 q 76 656 158 664 l 76 711 q 85 714 81 713 q 93 717 89 715 q 127 742 111 724 q 143 808 143 761 q 143 824 143 815 q 142 842 143 832 l 142 842 z "},"(":{"ha":460,"x_min":94,"x_max":404,"o":"m 317 1017 l 404 1017 q 390 985 397 1001 q 375 953 382 969 q 264 679 314 824 q 214 360 214 535 q 256 57 214 221 q 404 -304 299 -107 l 317 -306 q 277 -247 310 -304 q 208 -101 244 -190 q 158 30 182 -40 q 118 172 135 100 q 100 285 106 229 q 99 393 94 342 q 112 501 101 444 q 138 614 122 557 q 206 809 165 714 q 290 975 246 904 q 303 997 296 986 q 317 1017 310 1007 l 317 1017 z "},")":{"ha":460,"x_min":43,"x_max":353,"o":"m 43 -296 q 184 31 136 -135 q 232 365 232 196 q 212 585 232 475 q 150 807 192 696 q 101 917 128 863 q 43 1028 75 972 q 51 1028 47 1028 q 58 1028 54 1028 q 83 1028 69 1028 q 121 1028 96 1028 q 166 974 135 1014 q 231 868 197 933 q 313 659 275 783 q 350 372 350 535 q 344 242 353 313 q 315 100 335 172 q 233 -121 285 -14 q 121 -294 181 -228 l 43 -296 l 43 -296 z "},"*":{"ha":536,"x_min":54,"x_max":481,"o":"m 208 799 l 54 842 l 88 929 l 229 875 l 229 1028 l 317 1028 l 317 875 l 460 929 l 481 831 l 339 799 l 426 667 l 350 624 l 274 754 l 175 624 l 110 678 l 208 799 l 208 799 z "},"+":{"ha":810,"x_min":65,"x_max":733,"o":"m 65 274 l 65 372 l 350 372 l 350 667 l 449 667 l 449 372 l 733 372 l 733 274 l 449 274 l 449 -22 l 350 -22 l 350 274 l 65 274 l 65 274 z "},",":{"ha":383,"x_min":121,"x_max":274,"o":"m 121 0 l 121 153 l 274 153 l 274 0 q 263 -40 271 -15 q 242 -93 254 -65 q 193 -164 222 -131 q 121 -207 164 -197 l 121 -142 q 172 -86 153 -125 q 208 0 192 -47 l 121 0 l 121 0 z "},"-":{"ha":460,"x_min":65,"x_max":404,"o":"m 65 339 l 65 449 l 404 449 l 404 339 l 65 339 l 65 339 z "},".":{"ha":383,"x_min":121,"x_max":274,"o":"m 121 0 l 121 153 l 274 153 l 274 0 l 121 0 l 121 0 z "},"/":{"ha":383,"x_min":-11,"x_max":404,"o":"m -11 -22 l 317 1006 l 404 1006 l 76 -22 l -11 -22 l -11 -22 z "},":":{"ha":383,"x_min":142,"x_max":296,"o":"m 142 0 l 142 153 l 296 153 l 296 0 l 142 0 l 142 0 m 142 590 l 142 743 l 296 743 l 296 590 l 142 590 l 142 590 z "},";":{"ha":383,"x_min":142,"x_max":296,"o":"m 142 -11 l 142 142 l 296 142 l 296 -11 q 292 -34 294 -22 q 285 -58 289 -46 q 228 -163 267 -115 q 142 -217 189 -211 l 142 -142 q 190 -103 169 -133 q 222 -37 211 -72 q 226 -24 224 -31 q 229 -10 228 -17 l 142 -11 l 142 -11 m 142 568 l 142 722 l 296 722 l 296 568 l 142 568 l 142 568 z "},"<":{"ha":810,"x_min":54,"x_max":733,"o":"m 54 274 l 54 372 l 733 656 l 733 547 l 197 317 l 733 88 l 733 -22 l 54 274 l 54 274 z "},"=":{"ha":810,"x_min":65,"x_max":743,"o":"m 65 153 l 65 263 l 743 263 l 743 153 l 65 153 l 65 153 m 65 393 l 65 503 l 743 503 l 743 393 l 65 393 l 65 393 z "},">":{"ha":810,"x_min":65,"x_max":754,"o":"m 65 99 l 613 317 l 65 536 l 65 656 l 754 372 l 754 263 l 65 -22 l 65 99 l 65 99 z "},"?":{"ha":776,"x_min":107,"x_max":708,"o":"m 339 0 l 339 153 l 471 153 l 471 0 l 339 0 l 339 0 m 110 689 q 108 712 108 700 q 107 735 107 724 q 188 943 107 858 q 426 1028 269 1028 q 634 949 561 1028 q 708 765 707 869 q 706 731 708 749 q 700 697 704 714 q 655 594 688 644 q 568 503 622 544 q 544 484 556 493 q 525 467 533 475 q 480 385 489 429 q 471 263 471 342 l 339 263 q 340 385 333 339 q 374 472 347 432 q 406 513 388 492 q 449 558 424 533 q 515 615 489 585 q 557 676 542 646 q 573 718 568 697 q 578 760 578 739 q 533 869 578 824 q 415 918 489 914 q 265 853 301 911 q 229 689 229 796 l 110 689 l 110 689 z "},"@":{"ha":1411,"x_min":39,"x_max":1318,"o":"m 43 404 q 240 818 60 635 q 700 1017 421 1001 q 968 959 843 1017 q 1169 833 1093 901 q 1218 781 1199 807 q 1247 733 1238 756 q 1300 608 1283 669 q 1317 489 1317 547 q 1228 223 1318 336 q 1031 71 1139 110 q 983 58 1007 63 q 936 53 958 53 q 844 77 886 53 q 776 153 801 101 q 679 83 728 104 q 586 60 631 61 q 424 140 490 60 q 358 326 358 219 q 359 349 358 338 q 361 372 360 361 q 462 599 385 496 q 711 711 539 703 q 747 705 725 711 q 792 688 768 699 q 849 647 822 672 q 886 590 876 622 l 908 689 l 1039 689 l 897 251 q 894 235 896 243 q 892 221 893 228 q 908 178 892 192 q 951 165 925 165 q 994 172 971 165 q 1040 192 1017 179 q 1126 264 1086 218 q 1181 372 1167 310 q 1194 430 1190 401 q 1199 486 1199 458 q 1059 776 1199 656 q 722 897 919 897 q 707 899 715 899 q 690 899 699 899 q 637 895 664 899 q 582 885 610 892 q 310 717 435 846 q 164 404 185 589 q 162 392 163 399 q 161 381 161 386 q 160 368 160 374 q 160 356 160 363 q 161 325 160 340 q 165 294 163 310 q 331 20 190 144 q 688 -104 471 -104 q 815 -92 749 -104 q 951 -53 881 -81 l 996 -142 q 872 -185 935 -168 q 746 -207 808 -201 q 713 -209 729 -208 q 682 -210 697 -210 q 235 -58 431 -210 q 39 340 40 94 q 40 372 39 356 q 43 404 42 388 l 43 404 m 514 449 q 496 383 501 414 q 490 325 490 353 q 527 203 490 249 q 615 158 564 158 q 644 162 629 158 q 674 172 660 165 q 756 247 717 193 q 821 393 794 301 q 831 435 828 415 q 835 472 835 454 q 799 573 835 538 q 711 608 763 608 q 682 606 697 608 q 651 596 667 603 q 576 544 613 581 q 514 449 540 508 l 514 449 z "},"A":{"ha":929,"x_min":22,"x_max":918,"o":"m 22 0 l 383 1017 l 547 1017 l 918 0 l 765 0 l 656 296 l 274 296 l 175 0 l 22 0 l 22 0 m 306 415 l 613 415 l 471 842 l 306 415 l 306 415 z "},"B":{"ha":929,"x_min":110,"x_max":867,"o":"m 110 0 l 110 1017 q 189 1017 149 1017 q 269 1017 229 1017 q 430 1017 351 1017 q 568 1017 508 1017 q 740 943 667 1008 q 821 788 813 878 q 824 766 824 776 q 825 744 825 756 q 788 617 825 671 q 700 536 750 564 q 819 459 774 511 q 864 317 864 407 q 865 299 865 307 q 865 282 865 290 q 799 101 867 172 q 651 8 732 29 q 621 2 636 4 q 590 0 606 0 l 110 0 l 110 0 m 240 131 l 590 131 q 700 190 664 143 q 738 292 736 238 q 738 294 738 293 q 738 297 738 296 q 697 399 736 351 q 579 460 657 447 l 240 460 l 240 131 l 240 131 m 240 590 l 525 590 q 530 590 528 590 q 535 589 532 589 q 539 589 536 589 q 543 589 542 589 q 646 636 608 589 q 683 740 683 683 q 683 746 683 743 q 683 751 683 749 q 631 859 679 810 q 481 908 583 908 l 240 908 l 240 590 l 240 590 z "},"C":{"ha":1006,"x_min":54,"x_max":940,"o":"m 54 492 q 59 551 56 521 q 68 611 63 581 q 196 887 96 760 q 514 1028 296 1014 q 593 1020 549 1028 q 685 993 638 1013 q 822 890 757 961 q 918 689 888 819 l 776 689 q 673 854 746 800 q 517 908 600 908 q 506 908 511 908 q 497 907 501 908 q 295 799 388 899 q 197 514 203 700 q 290 191 197 290 q 494 90 383 92 q 497 90 496 90 q 499 90 497 90 q 699 167 607 90 q 799 372 790 244 l 940 372 q 934 335 938 354 q 925 297 931 317 q 785 71 889 174 q 525 -32 682 -32 q 171 120 288 -39 q 54 492 54 279 l 54 492 z "},"D":{"ha":1006,"x_min":131,"x_max":940,"o":"m 131 1017 l 536 1017 q 572 1015 554 1017 q 608 1010 590 1013 q 837 867 733 983 q 940 536 940 750 q 938 466 940 501 q 929 394 935 431 q 816 123 906 246 q 536 0 726 0 l 131 0 l 131 1017 l 131 1017 m 263 131 l 568 131 q 735 247 678 131 q 793 504 793 363 q 793 510 793 507 q 793 517 793 513 q 725 778 790 660 q 525 897 660 897 l 263 897 l 263 131 l 263 131 z "},"E":{"ha":929,"x_min":131,"x_max":853,"o":"m 131 0 l 131 1017 l 831 1017 l 831 908 l 263 908 l 263 579 l 810 579 l 810 460 l 263 460 l 263 121 l 853 121 l 853 0 l 131 0 l 131 0 z "},"F":{"ha":853,"x_min":131,"x_max":810,"o":"m 131 0 l 131 1017 l 810 1017 l 810 908 l 263 908 l 263 579 l 743 579 l 743 460 l 263 460 l 263 0 l 131 0 l 131 0 z "},"G":{"ha":1083,"x_min":43,"x_max":996,"o":"m 65 568 q 208 890 90 750 q 579 1039 325 1031 q 856 945 736 1039 q 985 711 976 851 l 853 711 q 846 740 851 725 q 832 769 840 754 q 730 872 800 825 q 568 918 660 918 q 543 917 556 918 q 517 915 531 917 q 297 803 397 899 q 197 514 197 707 q 198 488 197 501 q 199 463 199 475 q 280 213 207 326 q 547 99 353 99 q 610 104 575 99 q 683 124 646 110 q 819 220 758 150 q 875 426 881 290 l 558 426 l 558 547 l 996 547 l 996 0 l 897 0 l 875 121 q 742 28 813 63 q 599 -18 671 -7 q 560 -24 579 -22 q 522 -25 542 -25 q 188 127 332 -25 q 65 568 43 279 l 65 568 z "},"H":{"ha":1006,"x_min":110,"x_max":886,"o":"m 110 0 l 110 1017 l 240 1017 l 240 590 l 754 590 l 754 1017 l 886 1017 l 886 0 l 754 0 l 754 460 l 240 460 l 240 0 l 110 0 l 110 0 z "},"I":{"ha":383,"x_min":131,"x_max":263,"o":"m 131 0 l 131 1017 l 263 1017 l 263 0 l 131 0 l 131 0 z "},"J":{"ha":700,"x_min":10,"x_max":590,"o":"m 328 -22 q 280 -23 306 -22 q 229 -19 254 -24 q 78 63 146 -8 q 22 328 10 133 l 153 328 q 151 308 151 318 q 150 286 150 297 q 197 138 150 185 q 299 90 243 90 q 302 90 300 90 q 307 90 304 90 q 412 139 364 93 q 460 263 460 185 l 460 1017 l 590 1017 l 590 263 q 529 72 590 157 q 328 -21 468 -12 l 328 -22 z "},"K":{"ha":929,"x_min":99,"x_max":918,"o":"m 99 0 l 99 1017 l 240 1017 l 240 514 l 754 1017 l 918 1017 l 492 601 l 897 0 l 743 0 l 404 503 l 240 339 l 240 0 l 99 0 l 99 0 z "},"L":{"ha":776,"x_min":99,"x_max":733,"o":"m 99 0 l 99 1017 l 240 1017 l 240 121 l 733 121 l 733 0 l 99 0 l 99 0 z "},"M":{"ha":1160,"x_min":110,"x_max":1072,"o":"m 110 0 l 110 1017 l 306 1017 l 590 164 l 875 1017 l 1072 1017 l 1072 0 l 929 0 l 929 810 l 656 0 l 525 0 l 251 799 l 251 0 l 110 0 l 110 0 z "},"N":{"ha":1006,"x_min":110,"x_max":908,"o":"m 110 0 l 110 1017 l 274 1017 l 776 197 l 776 1017 l 908 1017 l 908 0 l 754 0 l 240 810 l 240 0 l 110 0 l 110 0 z "},"O":{"ha":1083,"x_min":54,"x_max":1039,"o":"m 54 547 q 57 595 54 571 q 65 644 60 619 q 220 908 97 788 q 547 1028 343 1028 q 597 1026 572 1028 q 647 1018 622 1024 q 911 873 790 992 q 1039 503 1032 754 q 908 128 1039 289 q 514 -32 776 -32 q 169 131 285 -32 q 54 547 54 293 l 54 547 m 186 481 q 196 407 189 447 q 218 325 203 367 q 315 170 247 242 q 514 88 383 99 q 533 85 524 86 q 551 85 542 85 q 797 202 689 85 q 897 558 906 319 q 796 803 889 697 q 547 908 703 908 q 511 906 529 908 q 475 900 493 904 q 276 778 367 878 q 186 481 186 678 l 186 481 z "},"P":{"ha":929,"x_min":121,"x_max":854,"o":"m 121 0 l 121 1017 l 590 1017 q 775 942 697 1017 q 853 743 853 867 q 854 733 854 738 q 854 721 854 728 q 849 668 854 697 q 833 610 844 639 q 755 491 810 544 q 601 438 700 438 l 251 438 l 251 0 l 121 0 l 121 0 m 251 886 l 251 547 l 590 547 q 614 558 594 547 q 656 589 633 568 q 705 651 683 613 q 722 743 726 690 q 674 847 714 808 q 568 886 633 886 l 251 886 l 251 886 z "},"Q":{"ha":1083,"x_min":50,"x_max":1036,"o":"m 54 449 q 52 465 53 457 q 51 483 51 474 q 50 500 50 492 q 50 517 50 508 q 174 875 50 715 q 547 1028 299 1035 q 622 1024 583 1028 q 700 1010 660 1019 q 898 895 804 982 q 1028 624 992 808 q 1033 578 1032 601 q 1035 532 1035 556 q 990 288 1036 401 q 886 110 943 174 l 1006 0 l 929 -76 l 799 43 q 720 6 760 21 q 640 -18 681 -8 q 588 -26 614 -24 q 535 -29 561 -29 q 203 103 346 -29 q 54 449 61 235 l 54 449 m 908 514 q 791 813 900 714 q 553 913 682 911 q 551 913 551 913 q 549 913 550 913 q 306 816 417 914 q 186 525 194 718 q 285 217 186 321 q 501 94 383 114 q 529 92 515 93 q 557 90 543 90 q 640 100 600 89 q 711 131 679 111 l 601 218 l 667 296 l 799 186 q 857 282 832 225 q 894 399 882 339 q 905 458 901 428 q 908 514 908 488 l 908 514 z "},"R":{"ha":1006,"x_min":131,"x_max":951,"o":"m 131 0 l 131 1017 l 646 1017 q 828 947 753 1017 q 918 754 903 878 q 915 701 918 729 q 904 643 913 672 q 863 567 892 604 q 776 503 833 531 q 874 405 853 465 q 897 281 896 344 q 897 272 897 276 q 897 263 897 267 q 897 245 897 254 q 897 226 897 236 q 902 115 896 167 q 951 33 908 63 l 951 0 l 788 0 q 773 57 778 28 q 767 117 768 86 q 765 146 765 131 q 764 175 764 161 q 764 183 764 179 q 764 190 764 186 q 740 350 761 279 q 601 438 719 421 l 263 438 l 263 0 l 131 0 l 131 0 m 263 558 l 613 558 q 621 557 617 557 q 629 557 625 557 q 737 610 693 557 q 782 726 781 663 q 782 728 782 728 q 782 731 782 729 q 782 733 782 732 q 782 735 782 733 q 734 841 781 792 q 579 897 688 890 l 263 897 l 263 558 l 263 558 z "},"S":{"ha":929,"x_min":61,"x_max":883,"o":"m 65 328 l 197 328 q 280 145 197 204 q 463 82 363 86 q 468 82 465 82 q 474 82 471 82 q 637 123 563 82 q 722 240 711 164 q 724 251 724 246 q 724 261 724 256 q 642 392 724 358 q 457 447 561 426 q 433 452 444 450 q 411 457 422 454 q 187 540 288 483 q 99 765 86 597 q 197 950 107 872 q 460 1028 288 1028 q 735 949 632 1028 q 831 722 839 869 l 700 722 q 700 726 700 725 q 700 731 700 728 q 700 734 700 732 q 700 738 700 736 q 627 869 700 824 q 467 918 554 915 q 462 918 464 918 q 458 918 460 918 q 303 876 374 918 q 229 743 233 833 q 313 640 240 669 q 482 589 386 610 q 517 581 499 585 q 553 572 535 576 q 762 492 665 546 q 875 306 858 439 q 756 54 883 140 q 472 -35 628 -32 q 470 -35 471 -35 q 468 -35 469 -35 q 188 53 315 -35 q 65 328 61 142 l 65 328 z "},"T":{"ha":853,"x_min":22,"x_max":821,"o":"m 361 0 l 361 908 l 22 908 l 22 1017 l 821 1017 l 821 908 l 503 908 l 503 0 l 361 0 l 361 0 z "},"U":{"ha":1006,"x_min":110,"x_max":897,"o":"m 110 296 l 110 1017 l 251 1017 l 251 296 q 330 130 251 186 q 501 74 408 74 q 675 129 596 74 q 754 296 754 185 l 754 1017 l 897 1017 l 897 296 q 776 56 897 140 q 508 -32 654 -29 q 503 -32 506 -32 q 500 -32 501 -32 q 243 47 361 -32 q 110 296 125 125 l 110 296 z "},"V":{"ha":929,"x_min":33,"x_max":897,"o":"m 393 0 l 33 1017 l 175 1017 l 471 164 l 754 1017 l 897 1017 l 536 0 l 393 0 l 393 0 z "},"W":{"ha":1313,"x_min":33,"x_max":1301,"o":"m 285 0 l 33 1017 l 186 1017 l 372 218 l 590 1017 l 743 1017 l 963 218 l 1149 1017 l 1301 1017 l 1039 0 l 886 0 l 667 810 l 438 0 l 285 0 l 285 0 z "},"X":{"ha":929,"x_min":33,"x_max":918,"o":"m 33 0 l 393 514 l 65 1017 l 229 1017 l 481 624 l 733 1017 l 897 1017 l 558 514 l 918 0 l 743 0 l 481 404 l 208 0 l 33 0 l 33 0 z "},"Y":{"ha":929,"x_min":11,"x_max":918,"o":"m 404 0 l 404 393 l 11 1017 l 175 1017 l 471 525 l 754 1017 l 918 1017 l 536 393 l 536 0 l 404 0 l 404 0 z "},"Z":{"ha":853,"x_min":33,"x_max":810,"o":"m 33 0 l 33 110 l 635 908 l 76 908 l 76 1017 l 810 1017 l 810 908 l 208 110 l 810 110 l 810 0 l 33 0 l 33 0 z "},"[":{"ha":383,"x_min":88,"x_max":350,"o":"m 88 -306 l 88 1017 l 350 1017 l 350 908 l 208 908 l 208 -186 l 350 -186 l 350 -306 l 88 -306 l 88 -306 z "},"\\":{"ha":383,"x_min":-11,"x_max":404,"o":"m 317 -33 l -11 1017 l 76 1017 l 404 -33 l 317 -33 l 317 -33 z "},"]":{"ha":383,"x_min":33,"x_max":296,"o":"m 33 -306 l 33 -197 l 175 -197 l 175 908 l 33 908 l 33 1017 l 296 1017 l 296 -306 l 33 -306 l 33 -306 z "},"^":{"ha":656,"x_min":65,"x_max":613,"o":"m 65 460 l 285 996 l 393 996 l 613 460 l 503 460 l 339 864 l 175 460 l 65 460 l 65 460 z "},"_":{"ha":776,"x_min":-43,"x_max":799,"o":"m -43 -240 l -43 -164 l 799 -164 l 799 -240 l -43 -240 l -43 -240 z "},"`":{"ha":460,"x_min":33,"x_max":328,"o":"m 33 1039 l 186 1039 l 328 831 l 229 831 l 33 1039 l 33 1039 z "},"a":{"ha":776,"x_min":54,"x_max":743,"o":"m 54 197 q 106 331 63 271 q 306 415 150 392 q 521 453 492 431 q 547 539 550 476 q 547 553 547 546 q 547 568 547 560 q 546 576 547 572 q 542 583 544 579 q 479 623 526 604 q 379 644 432 642 q 372 644 375 644 q 364 644 368 644 q 256 616 304 644 q 208 514 208 588 l 99 514 q 99 519 99 517 q 99 524 99 521 q 97 528 97 526 q 97 533 97 531 q 98 545 97 539 q 99 558 99 551 q 172 693 107 632 q 372 754 236 754 q 418 752 394 754 q 465 744 442 750 q 603 691 540 729 q 667 590 667 653 l 667 142 q 680 94 667 114 q 724 74 693 74 q 733 74 728 74 q 743 76 738 75 l 743 -11 l 667 -22 q 655 -24 661 -24 q 643 -25 649 -25 q 592 -6 611 -25 q 561 38 572 14 q 553 58 556 49 q 547 76 550 68 q 411 -5 476 19 q 290 -29 346 -29 q 122 35 186 -29 q 54 175 58 99 q 54 186 54 181 q 54 197 54 192 l 54 197 m 536 361 q 496 341 525 347 q 429 331 467 335 q 397 326 414 328 q 364 322 381 324 q 242 284 297 311 q 186 186 186 257 q 235 105 199 129 q 318 81 272 81 q 338 81 328 81 q 358 85 349 82 q 470 131 418 94 q 533 207 522 167 q 535 213 535 210 q 536 218 536 215 l 536 361 l 536 361 z "},"b":{"ha":776,"x_min":76,"x_max":736,"o":"m 76 0 l 76 1017 l 197 1017 l 197 635 q 278 721 215 689 q 418 753 342 753 q 438 752 428 753 q 458 751 447 751 q 560 722 510 746 q 646 656 610 699 q 709 533 682 611 q 736 360 736 454 q 731 286 736 324 q 714 211 726 249 q 699 166 708 189 q 678 121 689 143 q 563 5 636 47 q 411 -37 490 -37 q 291 -10 350 -37 q 186 76 232 17 l 186 0 l 76 0 l 76 0 m 197 383 q 258 153 197 226 q 394 79 319 79 q 397 79 396 79 q 399 79 397 79 q 544 160 479 81 q 601 383 610 239 q 540 573 597 513 q 413 633 482 633 q 406 633 410 633 q 400 633 403 633 q 264 563 326 628 q 197 383 201 499 l 197 383 z "},"c":{"ha":700,"x_min":29,"x_max":667,"o":"m 43 426 q 151 660 68 575 q 372 754 233 746 q 426 750 397 754 q 488 735 456 746 q 602 654 549 713 q 667 481 656 596 l 547 481 q 490 599 538 560 q 386 638 443 638 q 372 637 379 638 q 357 635 364 636 q 221 548 282 622 q 164 339 160 474 q 227 138 168 200 q 356 74 286 75 q 358 74 357 74 q 360 74 358 74 q 486 122 429 74 q 547 251 543 171 l 667 251 q 580 43 667 121 q 361 -42 493 -35 q 329 -39 346 -40 q 296 -33 313 -37 q 112 79 194 -14 q 43 426 29 172 l 43 426 z "},"d":{"ha":776,"x_min":25,"x_max":689,"o":"m 43 438 q 146 678 65 604 q 319 761 226 753 q 331 763 325 763 q 343 763 338 763 q 474 733 413 763 q 568 656 535 704 l 568 1017 l 689 1017 l 689 0 l 590 0 q 590 40 590 17 q 590 88 590 63 q 498 -1 563 32 q 358 -35 433 -35 q 340 -34 349 -35 q 322 -32 331 -33 q 117 89 208 -19 q 43 438 25 197 l 43 438 m 175 372 q 235 156 171 233 q 375 76 299 78 q 377 76 376 76 q 379 76 378 76 q 510 147 451 76 q 568 372 568 218 q 507 568 568 503 q 374 635 446 633 q 372 635 372 635 q 369 635 371 635 q 230 569 293 636 q 175 372 167 501 l 175 372 z "},"e":{"ha":776,"x_min":51,"x_max":722,"o":"m 54 372 q 150 649 71 544 q 393 754 229 754 q 631 655 563 754 q 715 438 699 556 q 721 376 719 407 q 722 317 722 346 l 186 317 q 247 136 190 192 q 371 81 303 81 q 377 81 374 81 q 383 81 381 81 q 499 124 444 85 q 579 229 554 163 l 700 229 q 608 51 692 115 q 393 -21 525 -12 q 160 66 235 -15 q 64 244 85 147 q 53 310 56 278 q 54 372 51 343 l 54 372 m 186 426 l 590 426 q 525 595 582 538 q 399 653 468 653 q 393 653 396 653 q 388 653 390 653 q 264 592 322 649 q 186 426 206 536 l 186 426 z "},"f":{"ha":383,"x_min":22,"x_max":361,"o":"m 121 0 l 121 635 l 22 635 l 22 743 l 121 743 q 121 772 121 760 q 121 794 121 783 q 121 815 121 804 q 121 842 121 826 q 175 994 128 953 q 290 1035 222 1035 q 326 1033 308 1035 q 361 1028 343 1031 l 361 929 q 350 929 356 929 q 339 931 344 929 q 330 931 335 931 q 321 931 325 931 q 269 919 293 932 q 240 853 246 906 l 240 743 l 361 743 l 361 635 l 240 635 l 240 0 l 121 0 l 121 0 z "},"g":{"ha":776,"x_min":33,"x_max":678,"o":"m 43 339 q 126 645 43 536 q 372 754 208 754 q 460 731 421 754 q 526 682 500 708 q 544 663 536 672 q 558 646 551 654 l 558 733 l 678 733 l 678 33 q 576 -243 678 -171 q 350 -315 474 -315 q 294 -311 326 -315 q 228 -297 263 -307 q 116 -229 167 -278 q 65 -86 65 -181 l 186 -87 q 233 -172 182 -139 q 350 -204 285 -204 q 362 -204 356 -204 q 375 -203 368 -204 q 502 -142 444 -196 q 560 26 560 -89 q 560 46 560 36 q 558 65 560 56 q 490 11 525 32 q 419 -21 456 -10 q 378 -31 399 -28 q 336 -35 357 -35 q 123 69 213 -36 q 43 339 33 175 l 43 339 m 175 372 q 235 142 179 213 q 358 69 290 71 q 362 69 360 69 q 365 69 364 69 q 504 153 442 74 q 558 361 567 233 q 504 557 561 493 q 375 621 447 621 q 371 621 374 621 q 367 621 368 621 q 238 554 297 617 q 175 372 179 492 l 175 372 z "},"h":{"ha":776,"x_min":88,"x_max":678,"o":"m 88 0 l 88 1028 l 208 1028 l 208 646 q 303 725 246 696 q 422 760 360 754 q 434 760 428 760 q 447 761 440 761 q 597 714 529 761 q 678 568 664 667 l 678 0 l 558 0 q 558 97 558 47 q 558 196 558 146 q 558 337 558 267 q 558 471 558 407 q 563 497 561 485 q 564 519 564 508 q 522 626 564 593 q 422 660 479 660 q 403 659 413 660 q 385 657 394 658 q 263 596 318 644 q 208 471 208 547 l 208 0 l 88 0 l 88 0 z "},"i":{"ha":306,"x_min":88,"x_max":208,"o":"m 88 0 l 88 733 l 208 733 l 208 0 l 88 0 l 88 0 m 88 864 l 88 1017 l 208 1017 l 208 864 l 88 864 l 88 864 z "},"j":{"ha":306,"x_min":-33,"x_max":208,"o":"m 88 -153 l 88 733 l 208 733 l 208 -175 q 158 -275 208 -247 q 46 -307 107 -303 q 35 -307 40 -307 q 25 -307 31 -307 q -4 -306 10 -307 q -32 -304 -18 -306 l -33 -197 q 48 -190 17 -196 q 88 -151 79 -185 l 88 -153 m 88 1017 l 208 1017 l 208 864 l 88 864 l 88 1017 l 88 1017 z "},"k":{"ha":700,"x_min":76,"x_max":700,"o":"m 197 0 l 76 0 l 76 1017 l 197 1017 l 197 426 l 503 733 l 667 733 l 404 471 l 700 0 l 558 0 l 306 383 l 197 274 l 197 0 l 197 0 z "},"l":{"ha":306,"x_min":88,"x_max":208,"o":"m 88 0 l 88 1017 l 208 1017 l 208 0 l 88 0 l 88 0 z "},"m":{"ha":1160,"x_min":99,"x_max":1065,"o":"m 99 0 l 99 733 l 218 733 l 218 635 q 291 719 233 682 q 422 758 349 757 q 458 756 440 758 q 494 747 476 753 q 567 712 531 736 q 635 646 603 688 q 718 726 657 699 q 847 756 779 754 q 998 708 931 756 q 1061 558 1065 661 l 1061 0 l 940 0 l 940 503 q 899 607 938 575 q 813 640 861 639 q 799 640 806 640 q 786 638 793 639 q 682 581 729 628 q 635 460 635 535 l 635 0 l 514 0 l 514 525 q 476 609 514 581 q 389 638 438 638 q 377 637 383 638 q 365 636 371 636 q 264 584 310 628 q 218 460 218 540 l 218 0 l 99 0 l 99 0 z "},"n":{"ha":776,"x_min":99,"x_max":686,"o":"m 99 0 l 99 733 l 218 733 l 218 635 q 300 715 231 681 q 450 753 369 750 q 458 753 454 753 q 464 753 461 753 q 618 706 550 754 q 678 536 686 657 l 678 0 l 558 0 l 558 514 q 518 609 558 578 q 425 640 478 640 q 408 640 417 640 q 390 638 399 639 q 272 569 325 625 q 218 415 218 514 l 218 0 l 99 0 l 99 0 z "},"o":{"ha":776,"x_min":54,"x_max":722,"o":"m 54 339 q 125 619 54 496 q 393 743 196 743 q 418 742 406 743 q 443 740 431 742 q 635 635 547 725 q 722 339 722 544 q 716 268 722 308 q 693 185 710 228 q 593 47 663 110 q 393 -21 524 -15 q 146 56 238 -29 q 54 339 54 142 l 54 339 m 175 350 q 244 143 182 208 q 379 78 307 78 q 381 78 381 78 q 383 78 382 78 q 533 157 465 79 q 590 372 600 235 q 522 573 586 506 q 379 640 457 640 q 235 568 300 640 q 175 350 171 496 l 175 350 z "},"p":{"ha":776,"x_min":76,"x_max":735,"o":"m 76 -306 l 76 733 l 186 733 l 186 646 q 195 658 190 651 q 207 669 200 664 q 295 726 239 700 q 418 753 351 751 q 473 747 444 753 q 529 729 501 742 q 578 703 554 719 q 624 667 601 688 q 632 657 628 663 q 640 646 636 651 q 704 516 675 597 q 735 342 733 435 q 734 312 735 326 q 731 282 733 297 q 698 164 724 222 q 624 54 672 106 q 538 -6 593 19 q 417 -32 482 -32 q 391 -31 404 -32 q 364 -26 378 -29 q 278 6 321 -18 q 197 76 235 31 l 197 -306 l 76 -306 l 76 -306 m 197 372 q 258 162 197 229 q 394 94 319 94 q 398 94 396 94 q 403 94 400 94 q 540 163 478 97 q 603 346 603 228 q 603 365 603 356 q 601 383 603 374 q 529 574 588 515 q 403 633 471 633 q 258 563 324 633 q 197 372 193 492 l 197 372 z "},"q":{"ha":776,"x_min":33,"x_max":689,"o":"m 33 404 q 140 670 44 579 q 349 761 235 761 q 472 733 413 761 q 579 646 532 704 l 579 733 l 689 733 l 689 -296 l 568 -296 l 568 76 q 472 2 524 28 q 367 -28 421 -24 q 358 -29 363 -29 q 347 -29 353 -29 q 130 80 226 -29 q 33 404 33 189 l 33 404 m 164 393 q 222 160 160 238 q 360 83 283 83 q 365 83 363 83 q 372 83 368 83 q 505 162 444 89 q 568 372 565 235 q 503 576 561 513 q 375 642 444 640 q 370 642 372 642 q 367 642 368 642 q 233 573 294 638 q 164 393 172 508 l 164 393 z "},"r":{"ha":460,"x_min":99,"x_max":449,"o":"m 99 0 l 99 733 l 218 733 l 218 635 q 228 649 224 642 q 239 663 233 656 q 318 735 274 708 q 449 754 363 761 l 449 624 q 276 573 335 624 q 218 415 218 522 l 218 0 l 99 0 l 99 0 z "},"s":{"ha":700,"x_min":43,"x_max":646,"o":"m 43 218 q 93 218 65 218 q 150 218 121 218 q 156 218 153 218 q 164 218 160 218 q 226 99 172 135 q 344 61 281 63 q 347 61 346 61 q 349 61 347 61 q 470 93 415 61 q 525 175 525 125 q 475 257 529 233 q 347 297 421 281 q 322 303 335 300 q 294 310 308 306 q 131 375 204 331 q 65 536 57 419 q 130 677 74 626 q 317 743 186 728 q 367 742 340 743 q 421 736 393 740 q 549 681 490 725 q 613 525 607 636 l 492 525 q 440 613 482 586 q 347 639 397 639 q 340 639 343 639 q 332 639 336 639 q 224 605 274 635 q 175 536 175 575 q 225 457 171 481 q 354 415 279 433 q 382 409 368 413 q 410 403 396 406 q 572 340 499 381 q 646 197 646 299 q 646 194 646 196 q 646 190 646 192 q 646 187 646 189 q 646 183 646 185 q 646 175 646 179 q 646 167 646 171 q 565 28 639 92 q 350 -42 492 -35 q 347 -42 349 -42 q 343 -42 344 -42 q 339 -40 340 -40 q 335 -40 338 -40 q 285 -36 311 -39 q 232 -28 258 -33 q 102 38 161 -12 q 43 218 43 88 l 43 218 z "},"t":{"ha":383,"x_min":11,"x_max":350,"o":"m 110 88 l 110 613 l 11 613 l 11 733 l 110 733 l 110 929 l 229 929 l 229 733 l 350 733 l 350 613 l 229 613 l 229 153 q 250 96 235 110 q 286 82 265 82 q 301 83 293 82 q 317 85 308 83 q 333 87 325 86 q 350 88 342 88 l 350 -22 q 306 -26 328 -24 q 265 -28 285 -28 q 157 -2 197 -28 q 110 88 117 24 l 110 88 z "},"u":{"ha":776,"x_min":99,"x_max":678,"o":"m 99 186 l 99 733 l 218 733 l 218 208 q 254 102 218 136 q 340 68 290 68 q 365 70 353 68 q 389 75 376 72 q 506 151 453 93 q 558 296 558 210 l 558 733 l 678 733 l 678 0 l 558 0 l 558 76 q 469 8 519 35 q 368 -28 419 -18 q 338 -33 353 -31 q 308 -35 324 -35 q 161 18 224 -35 q 99 186 99 71 l 99 186 z "},"v":{"ha":700,"x_min":11,"x_max":678,"o":"m 263 0 l 11 733 l 142 733 l 328 142 l 547 733 l 678 733 l 393 0 l 263 0 l 263 0 z "},"w":{"ha":1006,"x_min":0,"x_max":985,"o":"m 208 0 l 0 733 l 142 733 l 285 186 l 415 733 l 568 733 l 700 186 l 842 733 l 985 733 l 765 0 l 635 0 l 481 547 l 339 0 l 208 0 l 208 0 z "},"x":{"ha":700,"x_min":22,"x_max":667,"o":"m 274 383 l 43 733 l 175 733 l 350 481 l 525 733 l 656 733 l 404 383 l 667 0 l 525 0 l 339 274 l 153 0 l 22 0 l 274 383 l 274 383 z "},"y":{"ha":700,"x_min":22,"x_max":678,"o":"m 65 -285 l 65 -175 q 106 -181 88 -178 q 139 -183 124 -183 q 207 -154 181 -183 q 257 -39 233 -125 q 260 -30 258 -35 q 263 -21 261 -25 l 22 733 l 153 733 l 339 164 l 547 733 l 678 733 l 339 -175 q 276 -264 317 -233 q 190 -303 235 -294 q 173 -305 182 -304 q 156 -306 164 -306 q 108 -300 131 -306 q 65 -283 85 -294 l 65 -285 z "},"z":{"ha":700,"x_min":33,"x_max":635,"o":"m 33 99 l 460 613 l 65 613 l 65 733 l 613 733 l 613 624 l 208 121 l 635 121 l 635 0 l 33 0 l 33 99 l 33 99 z "},"{":{"ha":460,"x_min":54,"x_max":383,"o":"m 164 -175 l 164 164 q 133 254 157 224 q 79 292 108 285 q 67 295 74 294 q 54 296 60 296 l 54 404 q 153 481 135 399 q 169 664 172 564 q 169 700 169 682 q 167 736 168 718 q 165 785 165 761 q 164 831 164 810 q 228 980 172 946 q 383 1006 285 1014 l 383 908 q 374 908 379 908 q 364 910 369 908 q 351 910 358 910 q 336 910 343 911 q 293 897 313 910 q 274 842 274 883 q 272 825 272 835 q 272 804 272 815 q 273 772 272 789 q 274 736 274 756 q 275 672 275 706 q 274 603 275 638 q 251 451 271 522 q 175 350 231 381 q 268 205 257 288 q 275 -18 279 122 q 274 -76 275 -46 q 274 -140 274 -107 q 293 -192 274 -176 q 336 -212 313 -208 q 362 -216 349 -215 q 383 -217 375 -217 l 383 -306 q 371 -305 378 -304 q 358 -306 364 -306 q 345 -307 351 -307 q 332 -307 339 -307 q 230 -281 275 -308 q 164 -174 185 -254 l 164 -175 z "},"|":{"ha":361,"x_min":131,"x_max":229,"o":"m 131 -317 l 131 1006 l 229 1006 l 229 -317 l 131 -317 l 131 -317 z "},"}":{"ha":460,"x_min":33,"x_max":361,"o":"m 43 -306 l 43 -208 q 49 -207 46 -207 q 57 -207 53 -207 q 60 -207 58 -207 q 64 -207 63 -207 q 117 -199 93 -208 q 142 -140 142 -189 l 142 164 q 156 224 142 189 q 196 299 169 260 q 217 324 206 311 q 240 350 228 338 q 238 352 239 351 q 235 354 236 353 q 177 428 204 381 q 142 547 150 476 l 142 831 q 120 895 142 885 q 71 906 99 906 q 65 906 68 906 q 58 906 61 906 q 45 906 51 906 q 33 908 39 907 l 33 1006 q 60 1008 47 1007 q 83 1008 72 1008 q 217 967 183 1008 q 254 875 251 925 q 254 870 254 872 q 254 867 254 868 q 253 848 254 857 q 251 831 253 839 l 251 547 q 290 438 260 482 q 361 393 319 393 l 361 296 q 290 260 319 296 q 251 142 260 224 l 251 -131 q 210 -268 251 -226 q 100 -310 168 -310 q 72 -308 86 -310 q 43 -304 58 -307 l 43 -306 z "},"~":{"ha":810,"x_min":104,"x_max":714,"o":"m 110 393 q 149 549 104 493 q 258 604 194 604 q 284 602 271 604 q 310 596 297 600 q 335 585 322 592 q 361 568 349 578 l 492 481 q 534 460 515 467 q 567 454 553 454 q 620 488 606 454 q 635 568 635 521 l 711 568 q 714 553 714 561 q 714 539 714 546 q 713 516 714 528 q 708 493 711 504 q 657 401 694 443 q 563 360 619 360 q 524 365 544 360 q 481 383 503 371 l 317 492 q 294 503 307 499 q 268 508 282 508 q 266 508 267 508 q 264 508 265 508 q 210 481 235 507 q 186 393 186 454 l 110 393 l 110 393 z "},"Ä":{"ha":929,"x_min":22,"x_max":918,"o":"m 22 0 l 383 1017 l 547 1017 l 918 0 l 765 0 l 656 296 l 274 296 l 175 0 l 22 0 l 22 0 m 306 415 l 613 415 l 471 842 l 306 415 l 306 415 m 251 1258 l 383 1258 l 383 1115 l 251 1115 l 251 1258 l 251 1258 m 492 1258 l 624 1258 l 624 1115 l 492 1115 l 492 1258 l 492 1258 z "},"Å":{"ha":929,"x_min":22,"x_max":918,"o":"m 22 0 l 383 1017 l 547 1017 l 918 0 l 765 0 l 656 296 l 274 296 l 175 0 l 22 0 l 22 0 m 306 415 l 613 415 l 471 842 l 306 415 l 306 415 m 449 1301 q 540 1264 510 1301 q 571 1181 569 1226 q 538 1095 571 1133 q 438 1061 504 1057 q 348 1099 376 1065 q 319 1174 319 1132 q 319 1177 319 1175 q 319 1182 319 1179 q 356 1264 322 1226 q 449 1301 390 1301 l 449 1301 m 372 1181 q 394 1125 372 1143 q 442 1107 415 1107 q 488 1122 467 1106 q 514 1171 510 1139 q 514 1174 514 1172 q 514 1176 514 1175 q 514 1178 514 1176 q 514 1181 514 1179 q 494 1231 515 1214 q 446 1250 472 1249 q 444 1250 444 1250 q 442 1250 443 1250 q 397 1231 418 1249 q 372 1181 376 1214 l 372 1181 z "},"Ç":{"ha":1006,"x_min":65,"x_max":940,"o":"m 65 503 q 69 553 67 528 q 75 603 71 578 q 187 885 96 756 q 503 1028 278 1014 q 585 1020 539 1028 q 682 990 632 1013 q 822 888 756 958 q 918 689 889 818 l 776 689 q 674 845 749 792 q 514 899 600 899 q 506 899 510 899 q 497 899 501 899 q 302 800 392 892 q 208 525 213 708 q 301 198 208 299 q 506 96 394 97 q 508 96 507 96 q 510 96 508 96 q 703 171 615 96 q 799 372 790 246 l 940 372 q 837 115 924 233 q 568 -21 750 -4 l 547 -76 q 573 -70 561 -72 q 594 -68 585 -68 q 672 -97 647 -68 q 699 -164 697 -126 q 698 -175 699 -169 q 696 -187 697 -181 q 646 -272 688 -233 q 531 -310 604 -310 q 444 -296 492 -310 q 339 -250 396 -282 l 372 -186 q 451 -226 417 -214 q 513 -237 486 -237 q 566 -222 547 -237 q 588 -186 585 -206 q 589 -183 589 -185 q 589 -179 589 -181 q 576 -146 589 -161 q 538 -131 563 -131 q 517 -132 528 -129 q 492 -140 506 -135 l 471 -131 l 514 -22 q 171 134 276 -21 q 65 503 65 289 l 65 503 z "},"É":{"ha":929,"x_min":131,"x_max":853,"o":"m 131 0 l 131 1017 l 831 1017 l 831 908 l 263 908 l 263 579 l 810 579 l 810 460 l 263 460 l 263 121 l 853 121 l 853 0 l 131 0 l 131 0 m 372 1104 l 514 1324 l 667 1324 l 460 1104 l 372 1104 l 372 1104 z "},"Ñ":{"ha":1006,"x_min":99,"x_max":897,"o":"m 99 0 l 99 1017 l 263 1017 l 765 197 l 765 1017 l 897 1017 l 897 0 l 743 0 l 229 810 l 229 0 l 99 0 l 99 0 m 285 1115 q 293 1147 288 1128 q 307 1186 299 1165 q 346 1244 321 1218 q 413 1271 371 1271 q 426 1270 419 1271 q 438 1268 432 1269 l 547 1247 q 559 1245 554 1246 q 569 1243 564 1244 q 575 1243 572 1243 q 581 1243 578 1243 q 625 1257 607 1243 q 656 1301 643 1271 l 722 1301 q 717 1282 719 1292 q 710 1263 714 1272 q 666 1183 694 1219 q 581 1146 638 1146 q 565 1147 574 1146 q 547 1149 557 1147 l 438 1171 q 426 1173 432 1172 q 414 1174 419 1174 q 372 1158 386 1174 q 350 1115 357 1143 l 285 1115 l 285 1115 z "},"Ö":{"ha":1083,"x_min":43,"x_max":1028,"o":"m 43 568 q 46 615 43 592 q 53 663 49 639 q 208 929 85 808 q 536 1050 331 1050 q 586 1048 561 1050 q 636 1040 611 1046 q 900 894 779 1014 q 1028 525 1021 775 q 897 151 1028 311 q 503 -10 765 -10 q 158 152 274 -10 q 43 568 43 314 l 43 568 m 175 503 q 185 429 178 469 q 207 347 192 389 q 304 191 236 263 q 503 110 372 119 q 522 108 513 108 q 540 107 531 107 q 786 224 678 107 q 886 579 894 340 q 785 824 878 719 q 536 929 692 929 q 500 927 518 929 q 464 921 482 925 q 265 799 356 899 q 175 503 175 700 l 175 503 m 350 1268 l 481 1268 l 481 1126 l 350 1126 l 350 1268 l 350 1268 m 590 1268 l 722 1268 l 722 1126 l 590 1126 l 590 1268 l 590 1268 z "},"Ü":{"ha":1006,"x_min":110,"x_max":897,"o":"m 110 296 l 110 1017 l 251 1017 l 251 296 q 330 130 251 186 q 501 74 408 74 q 675 129 596 74 q 754 296 754 185 l 754 1017 l 897 1017 l 897 296 q 776 56 897 140 q 508 -32 654 -29 q 503 -32 506 -32 q 500 -32 501 -32 q 243 47 361 -32 q 110 296 125 125 l 110 296 m 306 1258 l 438 1258 l 438 1115 l 306 1115 l 306 1258 l 306 1258 m 547 1258 l 678 1258 l 678 1115 l 547 1115 l 547 1258 l 547 1258 z "},"á":{"ha":776,"x_min":54,"x_max":743,"o":"m 54 197 q 106 331 63 271 q 306 415 150 392 q 521 453 492 431 q 547 539 550 476 q 547 553 547 546 q 547 568 547 560 q 546 576 547 572 q 542 583 544 579 q 479 623 526 604 q 379 644 432 642 q 372 644 375 644 q 364 644 368 644 q 256 616 304 644 q 208 514 208 588 l 99 514 q 99 519 99 517 q 99 524 99 521 q 97 528 97 526 q 97 533 97 531 q 98 545 97 539 q 99 558 99 551 q 172 693 107 632 q 372 754 236 754 q 418 752 394 754 q 465 744 442 750 q 603 691 540 729 q 667 590 667 653 l 667 142 q 680 94 667 114 q 724 74 693 74 q 733 74 728 74 q 743 76 738 75 l 743 -11 l 667 -22 q 655 -24 661 -24 q 643 -25 649 -25 q 592 -6 611 -25 q 561 38 572 14 q 553 58 556 49 q 547 76 550 68 q 411 -5 476 19 q 290 -29 346 -29 q 122 35 186 -29 q 54 175 58 99 q 54 186 54 181 q 54 197 54 192 l 54 197 m 536 361 q 496 341 525 347 q 429 331 467 335 q 397 326 414 328 q 364 322 381 324 q 242 284 297 311 q 186 186 186 257 q 235 105 199 129 q 318 81 272 81 q 338 81 328 81 q 358 85 349 82 q 470 131 418 94 q 533 207 522 167 q 535 213 535 210 q 536 218 536 215 l 536 361 l 536 361 m 274 821 l 415 1039 l 568 1039 l 361 821 l 274 821 l 274 821 z "},"à":{"ha":776,"x_min":54,"x_max":743,"o":"m 54 197 q 106 331 63 271 q 306 415 150 392 q 521 453 492 431 q 547 539 550 476 q 547 553 547 546 q 547 568 547 560 q 546 576 547 572 q 542 583 544 579 q 479 623 526 604 q 379 644 432 642 q 372 644 375 644 q 364 644 368 644 q 256 616 304 644 q 208 514 208 588 l 99 514 q 99 519 99 517 q 99 524 99 521 q 97 528 97 526 q 97 533 97 531 q 98 545 97 539 q 99 558 99 551 q 172 693 107 632 q 372 754 236 754 q 418 752 394 754 q 465 744 442 750 q 603 691 540 729 q 667 590 667 653 l 667 142 q 680 94 667 114 q 724 74 693 74 q 733 74 728 74 q 743 76 738 75 l 743 -11 l 667 -22 q 655 -24 661 -24 q 643 -25 649 -25 q 592 -6 611 -25 q 561 38 572 14 q 553 58 556 49 q 547 76 550 68 q 411 -5 476 19 q 290 -29 346 -29 q 122 35 186 -29 q 54 175 58 99 q 54 186 54 181 q 54 197 54 192 l 54 197 m 536 361 q 496 341 525 347 q 429 331 467 335 q 397 326 414 328 q 364 322 381 324 q 242 284 297 311 q 186 186 186 257 q 235 105 199 129 q 318 81 272 81 q 338 81 328 81 q 358 85 349 82 q 470 131 418 94 q 533 207 522 167 q 535 213 535 210 q 536 218 536 215 l 536 361 l 536 361 m 197 1039 l 350 1039 l 492 831 l 393 831 l 197 1039 l 197 1039 z "},"â":{"ha":776,"x_min":54,"x_max":743,"o":"m 54 197 q 106 331 63 271 q 306 415 150 392 q 521 453 492 431 q 547 539 550 476 q 547 553 547 546 q 547 568 547 560 q 546 576 547 572 q 542 583 544 579 q 479 623 526 604 q 379 644 432 642 q 372 644 375 644 q 364 644 368 644 q 256 616 304 644 q 208 514 208 588 l 99 514 q 99 519 99 517 q 99 524 99 521 q 97 528 97 526 q 97 533 97 531 q 98 545 97 539 q 99 558 99 551 q 172 693 107 632 q 372 754 236 754 q 418 752 394 754 q 465 744 442 750 q 603 691 540 729 q 667 590 667 653 l 667 142 q 680 94 667 114 q 724 74 693 74 q 733 74 728 74 q 743 76 738 75 l 743 -11 l 667 -22 q 655 -24 661 -24 q 643 -25 649 -25 q 592 -6 611 -25 q 561 38 572 14 q 553 58 556 49 q 547 76 550 68 q 411 -5 476 19 q 290 -29 346 -29 q 122 35 186 -29 q 54 175 58 99 q 54 186 54 181 q 54 197 54 192 l 54 197 m 536 361 q 496 341 525 347 q 429 331 467 335 q 397 326 414 328 q 364 322 381 324 q 242 284 297 311 q 186 186 186 257 q 235 105 199 129 q 318 81 272 81 q 338 81 328 81 q 358 85 349 82 q 470 131 418 94 q 533 207 522 167 q 535 213 535 210 q 536 218 536 215 l 536 361 l 536 361 m 383 963 l 274 821 l 175 821 l 317 1039 l 449 1039 l 590 821 l 492 821 l 383 963 l 383 963 z "},"ä":{"ha":776,"x_min":54,"x_max":743,"o":"m 54 197 q 106 331 63 271 q 306 415 150 392 q 521 453 492 431 q 547 539 550 476 q 547 553 547 546 q 547 568 547 560 q 546 576 547 572 q 542 583 544 579 q 479 623 526 604 q 379 644 432 642 q 372 644 375 644 q 364 644 368 644 q 256 616 304 644 q 208 514 208 588 l 99 514 q 99 519 99 517 q 99 524 99 521 q 97 528 97 526 q 97 533 97 531 q 98 545 97 539 q 99 558 99 551 q 172 693 107 632 q 372 754 236 754 q 418 752 394 754 q 465 744 442 750 q 603 691 540 729 q 667 590 667 653 l 667 142 q 680 94 667 114 q 724 74 693 74 q 733 74 728 74 q 743 76 738 75 l 743 -11 l 667 -22 q 655 -24 661 -24 q 643 -25 649 -25 q 592 -6 611 -25 q 561 38 572 14 q 553 58 556 49 q 547 76 550 68 q 411 -5 476 19 q 290 -29 346 -29 q 122 35 186 -29 q 54 175 58 99 q 54 186 54 181 q 54 197 54 192 l 54 197 m 536 361 q 496 341 525 347 q 429 331 467 335 q 397 326 414 328 q 364 322 381 324 q 242 284 297 311 q 186 186 186 257 q 235 105 199 129 q 318 81 272 81 q 338 81 328 81 q 358 85 349 82 q 470 131 418 94 q 533 207 522 167 q 535 213 535 210 q 536 218 536 215 l 536 361 l 536 361 m 186 996 l 317 996 l 317 853 l 186 853 l 186 996 l 186 996 m 426 996 l 558 996 l 558 853 l 426 853 l 426 996 l 426 996 z "},"ã":{"ha":776,"x_min":54,"x_max":743,"o":"m 54 197 q 106 331 63 271 q 306 415 150 392 q 521 453 492 431 q 547 539 550 476 q 547 553 547 546 q 547 568 547 560 q 546 576 547 572 q 542 583 544 579 q 479 623 526 604 q 379 644 432 642 q 372 644 375 644 q 364 644 368 644 q 256 616 304 644 q 208 514 208 588 l 99 514 q 99 519 99 517 q 99 524 99 521 q 97 528 97 526 q 97 533 97 531 q 98 545 97 539 q 99 558 99 551 q 172 693 107 632 q 372 754 236 754 q 418 752 394 754 q 465 744 442 750 q 603 691 540 729 q 667 590 667 653 l 667 142 q 680 94 667 114 q 724 74 693 74 q 733 74 728 74 q 743 76 738 75 l 743 -11 l 667 -22 q 655 -24 661 -24 q 643 -25 649 -25 q 592 -6 611 -25 q 561 38 572 14 q 553 58 556 49 q 547 76 550 68 q 411 -5 476 19 q 290 -29 346 -29 q 122 35 186 -29 q 54 175 58 99 q 54 186 54 181 q 54 197 54 192 l 54 197 m 536 361 q 496 341 525 347 q 429 331 467 335 q 397 326 414 328 q 364 322 381 324 q 242 284 297 311 q 186 186 186 257 q 235 105 199 129 q 318 81 272 81 q 338 81 328 81 q 358 85 349 82 q 470 131 418 94 q 533 207 522 167 q 535 213 535 210 q 536 218 536 215 l 536 361 l 536 361 m 164 821 q 172 852 167 833 q 188 892 178 871 q 226 950 201 924 q 293 976 251 976 q 305 976 299 976 q 317 974 311 975 l 426 951 q 438 949 433 950 q 449 947 443 949 q 454 947 451 947 q 460 947 457 947 q 505 961 486 947 q 536 1006 524 975 l 601 1006 q 596 986 599 996 q 590 967 593 976 q 547 887 575 924 q 461 850 518 850 q 444 851 453 850 q 426 853 436 851 l 317 875 q 303 877 310 876 q 292 878 297 878 q 251 863 265 878 q 229 821 236 849 l 164 821 l 164 821 z "},"å":{"ha":776,"x_min":54,"x_max":743,"o":"m 54 197 q 106 331 63 271 q 306 415 150 392 q 521 453 492 431 q 547 539 550 476 q 547 553 547 546 q 547 568 547 560 q 546 576 547 572 q 542 583 544 579 q 479 623 526 604 q 379 644 432 642 q 372 644 375 644 q 364 644 368 644 q 256 616 304 644 q 208 514 208 588 l 99 514 q 99 519 99 517 q 99 524 99 521 q 97 528 97 526 q 97 533 97 531 q 98 545 97 539 q 99 558 99 551 q 172 693 107 632 q 372 754 236 754 q 418 752 394 754 q 465 744 442 750 q 603 691 540 729 q 667 590 667 653 l 667 142 q 680 94 667 114 q 724 74 693 74 q 733 74 728 74 q 743 76 738 75 l 743 -11 l 667 -22 q 655 -24 661 -24 q 643 -25 649 -25 q 592 -6 611 -25 q 561 38 572 14 q 553 58 556 49 q 547 76 550 68 q 411 -5 476 19 q 290 -29 346 -29 q 122 35 186 -29 q 54 175 58 99 q 54 186 54 181 q 54 197 54 192 l 54 197 m 536 361 q 496 341 525 347 q 429 331 467 335 q 397 326 414 328 q 364 322 381 324 q 242 284 297 311 q 186 186 186 257 q 235 105 199 129 q 318 81 272 81 q 338 81 328 81 q 358 85 349 82 q 470 131 418 94 q 533 207 522 167 q 535 213 535 210 q 536 218 536 215 l 536 361 l 536 361 m 404 1039 q 495 1001 465 1039 q 526 918 525 964 q 493 833 526 871 q 393 799 460 794 q 303 836 332 803 q 275 911 275 869 q 275 915 275 913 q 275 919 275 917 q 312 1001 278 964 q 404 1039 346 1039 l 404 1039 m 328 918 q 349 863 328 881 q 397 844 371 844 q 399 844 399 844 q 401 844 400 844 q 446 861 425 844 q 471 908 467 878 q 471 913 471 911 q 471 917 471 915 q 453 966 472 949 q 410 988 433 983 q 406 988 408 988 q 403 988 404 988 q 354 971 376 988 q 328 918 332 954 l 328 918 z "},"ç":{"ha":700,"x_min":28,"x_max":656,"o":"m 33 426 q 140 660 57 575 q 361 754 222 746 q 415 750 386 754 q 476 735 444 746 q 591 654 538 713 q 656 481 644 596 l 536 481 q 480 594 532 553 q 363 638 428 636 q 356 638 360 638 q 349 638 353 638 q 215 562 275 632 q 164 339 156 492 q 225 151 168 211 q 350 86 282 92 q 356 86 353 86 q 363 86 360 86 q 480 130 428 86 q 536 251 532 174 l 656 251 q 593 70 656 138 q 415 -21 531 3 l 393 -76 q 421 -69 408 -71 q 444 -65 433 -67 q 514 -93 490 -65 q 538 -158 538 -121 q 537 -171 538 -164 q 535 -183 536 -178 q 484 -264 525 -228 q 368 -300 443 -300 q 286 -289 332 -300 q 186 -250 240 -278 l 218 -186 q 299 -224 264 -212 q 360 -235 335 -235 q 413 -218 396 -235 q 429 -182 429 -201 q 415 -142 431 -160 q 369 -124 399 -124 q 355 -125 363 -124 q 339 -129 347 -126 l 317 -121 l 350 -33 q 345 -31 347 -32 q 340 -31 343 -31 q 289 -21 317 -26 q 233 -6 261 -15 q 92 108 156 19 q 33 426 28 197 l 33 426 z "},"é":{"ha":776,"x_min":42,"x_max":711,"o":"m 43 372 q 140 649 60 544 q 383 754 219 754 q 619 655 551 754 q 704 438 688 556 q 710 376 708 407 q 711 317 711 346 l 175 317 q 235 136 179 192 q 360 81 292 81 q 366 81 363 81 q 372 81 369 81 q 488 124 433 85 q 568 229 543 163 l 689 229 q 598 51 681 115 q 383 -21 515 -12 q 149 66 225 -15 q 53 244 74 147 q 44 310 46 278 q 43 372 42 343 l 43 372 m 175 426 l 579 426 q 514 595 571 538 q 388 653 457 653 q 382 653 385 653 q 376 653 379 653 q 253 592 311 649 q 175 426 194 536 l 175 426 m 274 821 l 415 1039 l 568 1039 l 361 821 l 274 821 l 274 821 z "},"è":{"ha":776,"x_min":42,"x_max":711,"o":"m 43 372 q 140 649 60 544 q 383 754 219 754 q 619 655 551 754 q 704 438 688 556 q 710 376 708 407 q 711 317 711 346 l 175 317 q 235 136 179 192 q 360 81 292 81 q 366 81 363 81 q 372 81 369 81 q 488 124 433 85 q 568 229 543 163 l 689 229 q 598 51 681 115 q 383 -21 515 -12 q 149 66 225 -15 q 53 244 74 147 q 44 310 46 278 q 43 372 42 343 l 43 372 m 175 426 l 579 426 q 514 595 571 538 q 388 653 457 653 q 382 653 385 653 q 376 653 379 653 q 253 592 311 649 q 175 426 194 536 l 175 426 m 197 1039 l 350 1039 l 492 831 l 393 831 l 197 1039 l 197 1039 z "},"ê":{"ha":776,"x_min":42,"x_max":711,"o":"m 43 372 q 140 649 60 544 q 383 754 219 754 q 619 655 551 754 q 704 438 688 556 q 710 376 708 407 q 711 317 711 346 l 175 317 q 235 136 179 192 q 360 81 292 81 q 366 81 363 81 q 372 81 369 81 q 488 124 433 85 q 568 229 543 163 l 689 229 q 598 51 681 115 q 383 -21 515 -12 q 149 66 225 -15 q 53 244 74 147 q 44 310 46 278 q 43 372 42 343 l 43 372 m 175 426 l 579 426 q 514 595 571 538 q 388 653 457 653 q 382 653 385 653 q 376 653 379 653 q 253 592 311 649 q 175 426 194 536 l 175 426 m 372 974 l 263 831 l 164 831 l 306 1050 l 438 1050 l 579 831 l 481 831 l 372 974 l 372 974 z "},"ë":{"ha":776,"x_min":42,"x_max":711,"o":"m 43 372 q 140 649 60 544 q 383 754 219 754 q 619 655 551 754 q 704 438 688 556 q 710 376 708 407 q 711 317 711 346 l 175 317 q 235 136 179 192 q 360 81 292 81 q 366 81 363 81 q 372 81 369 81 q 488 124 433 85 q 568 229 543 163 l 689 229 q 598 51 681 115 q 383 -21 515 -12 q 149 66 225 -15 q 53 244 74 147 q 44 310 46 278 q 43 372 42 343 l 43 372 m 175 426 l 579 426 q 514 595 571 538 q 388 653 457 653 q 382 653 385 653 q 376 653 379 653 q 253 592 311 649 q 175 426 194 536 l 175 426 m 186 996 l 317 996 l 317 853 l 186 853 l 186 996 l 186 996 m 426 996 l 558 996 l 558 853 l 426 853 l 426 996 l 426 996 z "},"í":{"ha":383,"x_min":88,"x_max":383,"o":"m 131 733 l 251 733 l 251 0 l 131 0 l 131 733 l 131 733 m 88 821 l 229 1039 l 383 1039 l 175 821 l 88 821 l 88 821 z "},"ì":{"ha":383,"x_min":-11,"x_max":285,"o":"m 131 733 l 251 733 l 251 0 l 131 0 l 131 733 l 131 733 m -11 1028 l 142 1028 l 285 821 l 186 821 l -11 1028 l -11 1028 z "},"î":{"ha":383,"x_min":-33,"x_max":383,"o":"m 121 733 l 240 733 l 240 0 l 121 0 l 121 733 l 121 733 m 175 951 l 65 810 l -33 810 l 110 1028 l 240 1028 l 383 810 l 285 810 l 175 951 l 175 951 z "},"ï":{"ha":383,"x_min":0,"x_max":372,"o":"m 121 733 l 240 733 l 240 0 l 121 0 l 121 733 l 121 733 m 0 996 l 131 996 l 131 853 l 0 853 l 0 996 l 0 996 m 240 996 l 372 996 l 372 853 l 240 853 l 240 996 l 240 996 z "},"ñ":{"ha":776,"x_min":99,"x_max":686,"o":"m 99 0 l 99 733 l 218 733 l 218 635 q 300 715 231 681 q 450 753 369 750 q 458 753 454 753 q 464 753 461 753 q 618 706 550 754 q 678 536 686 657 l 678 0 l 558 0 l 558 514 q 518 609 558 578 q 425 640 478 640 q 408 640 417 640 q 390 638 399 639 q 272 569 325 625 q 218 415 218 514 l 218 0 l 99 0 l 99 0 m 164 831 q 172 862 167 843 q 188 901 178 881 q 227 960 201 933 q 294 988 253 988 q 306 987 300 988 q 317 985 311 986 l 426 963 q 438 960 433 961 q 449 958 443 960 q 454 958 451 958 q 460 958 457 958 q 505 972 486 958 q 536 1017 524 986 l 601 1017 q 596 997 599 1007 q 590 978 593 988 q 547 898 575 935 q 461 861 518 861 q 444 862 453 861 q 426 864 436 863 l 317 886 q 305 888 311 888 q 293 889 299 889 q 251 874 265 889 q 229 831 236 858 l 164 831 l 164 831 z "},"ó":{"ha":776,"x_min":43,"x_max":711,"o":"m 43 361 q 115 641 43 517 q 383 765 186 765 q 409 765 396 765 q 436 761 422 764 q 625 655 539 746 q 711 361 711 564 q 705 290 711 331 q 682 207 699 250 q 583 69 651 132 q 383 0 514 6 q 135 78 228 -7 q 43 361 43 164 l 43 361 m 164 372 q 233 165 171 231 q 368 99 296 99 q 370 99 369 99 q 372 99 371 99 q 522 178 454 100 q 579 393 589 256 q 510 594 575 526 q 368 661 446 661 q 224 590 289 661 q 164 372 160 518 l 164 372 m 274 821 l 415 1039 l 568 1039 l 361 821 l 274 821 l 274 821 z "},"ò":{"ha":776,"x_min":33,"x_max":700,"o":"m 33 350 q 104 631 33 507 q 372 754 175 754 q 398 753 385 754 q 425 750 411 753 q 614 644 528 735 q 700 350 700 553 q 694 279 700 319 q 671 196 688 239 q 572 58 642 121 q 372 -10 503 -4 q 125 67 217 -18 q 33 350 33 153 l 33 350 m 153 361 q 222 154 160 219 q 357 89 285 89 q 359 89 358 89 q 361 89 360 89 q 510 168 443 90 q 568 383 578 246 q 501 581 565 514 q 361 650 438 649 q 359 650 360 650 q 357 650 358 650 q 213 578 278 650 q 153 361 149 507 l 153 361 m 164 1028 l 317 1028 l 460 821 l 361 821 l 164 1028 l 164 1028 z "},"ô":{"ha":776,"x_min":43,"x_max":711,"o":"m 43 361 q 115 641 43 517 q 383 765 186 765 q 409 765 396 765 q 436 761 422 764 q 625 655 539 746 q 711 361 711 564 q 705 290 711 331 q 682 207 699 250 q 583 69 651 132 q 383 0 514 6 q 135 78 228 -7 q 43 361 43 164 l 43 361 m 164 372 q 233 165 171 231 q 368 99 296 99 q 370 99 369 99 q 372 99 371 99 q 522 178 454 100 q 579 393 589 256 q 510 594 575 526 q 368 661 446 661 q 224 590 289 661 q 164 372 160 518 l 164 372 m 372 963 l 263 821 l 164 821 l 306 1039 l 438 1039 l 579 821 l 481 821 l 372 963 l 372 963 z "},"ö":{"ha":776,"x_min":43,"x_max":711,"o":"m 43 361 q 115 641 43 517 q 383 765 186 765 q 409 765 396 765 q 436 761 422 764 q 625 655 539 746 q 711 361 711 564 q 705 290 711 331 q 682 207 699 250 q 583 69 651 132 q 383 0 514 6 q 135 78 228 -7 q 43 361 43 164 l 43 361 m 164 372 q 233 165 171 231 q 368 99 296 99 q 370 99 369 99 q 372 99 371 99 q 522 178 454 100 q 579 393 589 256 q 510 594 575 526 q 368 661 446 661 q 224 590 289 661 q 164 372 160 518 l 164 372 m 186 996 l 317 996 l 317 853 l 186 853 l 186 996 l 186 996 m 426 996 l 558 996 l 558 853 l 426 853 l 426 996 l 426 996 z "},"õ":{"ha":776,"x_min":43,"x_max":711,"o":"m 43 361 q 115 641 43 517 q 383 765 186 765 q 409 765 396 765 q 436 761 422 764 q 625 655 539 746 q 711 361 711 564 q 705 290 711 331 q 682 207 699 250 q 583 69 651 132 q 383 0 514 6 q 135 78 228 -7 q 43 361 43 164 l 43 361 m 164 372 q 233 165 171 231 q 368 99 296 99 q 370 99 369 99 q 372 99 371 99 q 522 178 454 100 q 579 393 589 256 q 510 594 575 526 q 368 661 446 661 q 224 590 289 661 q 164 372 160 518 l 164 372 m 164 831 q 172 862 167 843 q 188 901 178 881 q 227 960 201 933 q 294 988 253 988 q 306 987 300 988 q 317 985 311 986 l 426 963 q 438 960 433 961 q 449 958 443 960 q 454 958 451 958 q 460 958 457 958 q 505 972 486 958 q 536 1017 524 986 l 601 1017 q 596 997 599 1007 q 590 978 593 988 q 547 898 575 935 q 461 861 518 861 q 444 862 453 861 q 426 864 436 863 l 317 886 q 305 888 311 888 q 293 889 299 889 q 251 874 265 889 q 229 831 236 858 l 164 831 l 164 831 z "},"ú":{"ha":776,"x_min":99,"x_max":678,"o":"m 99 186 l 99 733 l 218 733 l 218 208 q 254 102 218 136 q 340 68 290 68 q 365 70 353 68 q 389 75 376 72 q 506 151 453 93 q 558 296 558 210 l 558 733 l 678 733 l 678 0 l 558 0 l 558 76 q 469 8 519 35 q 368 -28 419 -18 q 338 -33 353 -31 q 308 -35 324 -35 q 161 18 224 -35 q 99 186 99 71 l 99 186 m 274 810 l 415 1028 l 568 1028 l 361 810 l 274 810 l 274 810 z "},"ù":{"ha":776,"x_min":88,"x_max":667,"o":"m 88 186 l 88 733 l 208 733 l 208 208 q 244 102 208 136 q 329 68 281 68 q 353 70 342 68 q 378 75 365 72 q 494 151 442 93 q 547 296 547 210 l 547 733 l 667 733 l 667 0 l 547 0 l 547 76 q 458 8 508 35 q 357 -28 408 -18 q 327 -33 342 -31 q 297 -35 313 -35 q 150 18 213 -35 q 88 186 88 71 l 88 186 m 186 1039 l 339 1039 l 481 831 l 383 831 l 186 1039 l 186 1039 z "},"û":{"ha":776,"x_min":88,"x_max":667,"o":"m 88 186 l 88 733 l 208 733 l 208 208 q 244 102 208 136 q 329 68 281 68 q 353 70 342 68 q 378 75 365 72 q 494 151 442 93 q 547 296 547 210 l 547 733 l 667 733 l 667 0 l 547 0 l 547 76 q 458 8 508 35 q 357 -28 408 -18 q 327 -33 342 -31 q 297 -35 313 -35 q 150 18 213 -35 q 88 186 88 71 l 88 186 m 372 940 l 263 799 l 164 799 l 306 1017 l 438 1017 l 579 799 l 481 799 l 372 940 l 372 940 z "},"ü":{"ha":776,"x_min":88,"x_max":667,"o":"m 88 186 l 88 733 l 208 733 l 208 208 q 244 102 208 136 q 329 68 281 68 q 353 70 342 68 q 378 75 365 72 q 494 151 442 93 q 547 296 547 210 l 547 733 l 667 733 l 667 0 l 547 0 l 547 76 q 458 8 508 35 q 357 -28 408 -18 q 327 -33 342 -31 q 297 -35 313 -35 q 150 18 213 -35 q 88 186 88 71 l 88 186 m 186 985 l 317 985 l 317 842 l 186 842 l 186 985 l 186 985 m 426 985 l 558 985 l 558 842 l 426 842 l 426 985 l 426 985 z "},"†":{"ha":776,"x_min":43,"x_max":711,"o":"m 317 711 l 317 1006 l 460 1006 l 460 711 l 711 711 l 711 590 l 460 590 l 460 -240 l 317 -240 l 317 590 l 43 590 l 43 711 l 317 711 l 317 711 z "},"¢":{"ha":776,"x_min":64,"x_max":711,"o":"m 503 624 l 350 76 q 377 74 364 75 q 403 74 390 74 q 522 108 468 74 q 601 251 575 142 l 711 251 q 627 49 700 113 q 469 -31 554 -15 q 440 -33 454 -32 q 413 -35 426 -35 q 362 -31 386 -35 q 317 -21 338 -28 l 274 -175 l 208 -175 l 263 0 q 113 146 161 49 q 64 350 64 243 q 64 353 64 351 q 64 358 64 356 q 154 626 65 504 q 408 747 243 747 q 439 747 424 749 q 471 743 454 746 l 514 875 l 579 875 l 536 733 q 665 631 618 700 q 711 471 711 561 l 601 471 q 591 503 597 485 q 575 540 585 521 q 544 587 563 564 q 503 624 526 610 l 503 624 m 296 110 l 449 646 q 427 650 438 649 q 406 651 417 651 q 251 565 310 651 q 192 367 192 478 q 192 345 192 356 q 194 324 193 335 q 225 211 200 267 q 296 110 250 156 l 296 110 z "},"£":{"ha":776,"x_min":43,"x_max":754,"o":"m 164 525 q 107 620 132 571 q 82 725 82 669 q 103 820 82 769 q 175 929 124 871 q 282 999 217 974 q 418 1024 347 1024 q 422 1024 419 1024 q 425 1024 424 1024 q 641 942 544 1021 q 722 689 738 864 l 601 689 q 544 852 604 799 q 411 907 483 906 q 409 907 410 907 q 407 907 408 907 q 278 861 336 907 q 219 729 219 815 q 238 637 219 688 q 296 525 256 586 l 514 525 l 514 449 l 328 449 q 340 403 336 425 q 344 361 343 381 q 319 258 344 303 q 265 181 294 214 q 227 141 246 158 q 197 110 208 124 q 285 139 246 131 q 356 147 324 147 q 420 140 392 147 q 475 125 449 133 q 503 117 489 121 q 529 108 517 113 q 552 104 540 106 q 575 103 564 103 q 633 114 603 103 q 700 153 663 125 l 754 54 q 663 -7 707 10 q 575 -25 618 -24 q 505 -17 539 -25 q 436 1 471 -8 q 428 3 432 3 q 422 6 425 4 q 347 28 385 18 q 268 38 308 38 q 197 28 233 39 q 121 -10 160 17 l 54 76 q 56 78 56 78 q 58 81 57 79 q 175 200 122 138 q 228 349 228 263 q 224 397 228 372 q 208 449 219 422 l 43 449 l 43 525 l 164 525 l 164 525 z "},"§":{"ha":776,"x_min":53,"x_max":708,"o":"m 197 646 q 153 728 167 689 q 139 803 139 768 q 218 953 139 897 q 393 1014 297 1010 q 399 1014 396 1014 q 404 1014 401 1014 q 573 956 497 1014 q 649 769 649 899 q 648 747 649 758 q 646 722 647 735 l 525 722 q 526 739 526 731 q 526 756 526 747 q 487 868 528 833 q 397 906 446 903 q 395 906 396 906 q 393 906 394 906 q 304 878 344 906 q 264 804 264 850 q 318 701 263 760 q 514 579 374 642 q 644 485 600 542 q 703 369 689 429 q 707 342 706 356 q 708 317 708 329 q 663 172 708 236 q 547 99 617 107 q 610 8 590 53 q 629 -78 629 -36 q 545 -242 629 -175 q 361 -315 461 -310 q 353 -315 357 -315 q 346 -315 350 -315 q 177 -248 253 -315 q 99 -21 101 -181 l 218 -22 q 260 -145 218 -106 q 353 -189 303 -185 q 358 -189 356 -189 q 364 -189 361 -189 q 451 -162 413 -189 q 490 -86 490 -135 q 431 31 490 -36 q 218 175 371 99 q 100 282 146 211 q 53 429 54 353 q 87 548 53 490 q 197 646 121 606 l 197 646 m 274 590 q 200 526 232 560 q 168 451 168 492 q 182 403 168 428 q 229 350 196 378 l 481 142 q 547 207 517 163 q 576 301 576 251 q 563 361 578 332 q 514 415 549 390 l 274 590 l 274 590 z "},"¶":{"ha":743,"x_min":54,"x_max":722,"o":"m 438 929 l 438 -251 l 339 -251 l 339 361 q 128 465 200 365 q 54 685 56 565 q 54 690 54 688 q 54 697 54 693 q 142 924 58 821 q 393 1028 225 1028 l 722 1028 l 722 929 l 646 929 l 646 -251 l 547 -251 l 547 929 l 438 929 l 438 929 z "},"ß":{"ha":853,"x_min":164,"x_max":797,"o":"m 415 601 q 567 650 519 607 q 617 744 614 693 q 617 747 617 746 q 617 749 617 747 q 604 805 617 778 q 568 853 592 832 q 516 883 546 872 q 454 893 486 893 q 345 856 394 893 q 296 743 296 819 l 296 0 l 164 0 l 164 765 q 256 949 164 888 q 458 1011 349 1011 q 587 988 525 1011 q 689 918 649 965 q 731 843 713 890 q 750 743 750 796 q 750 739 750 742 q 750 735 750 736 q 721 634 749 682 q 624 558 693 586 q 756 455 714 528 q 797 299 797 382 q 797 288 797 293 q 796 276 797 282 q 710 65 789 160 q 494 -32 632 -31 q 450 -30 472 -32 q 404 -21 428 -28 l 404 88 q 422 85 414 86 q 438 83 429 85 q 446 83 442 83 q 454 83 450 83 q 612 146 557 83 q 669 283 667 208 q 669 285 669 285 q 669 288 669 286 q 617 422 669 361 q 451 482 564 482 q 442 482 447 482 q 433 482 438 482 q 424 481 429 482 q 415 481 419 481 l 415 601 l 415 601 z "},"®":{"ha":1028,"x_min":-29,"x_max":1050,"o":"m -22 492 q 126 881 -29 722 q 503 1039 282 1039 q 879 886 708 1039 q 1050 503 1050 733 q 942 172 1044 290 q 717 7 839 54 q 597 -26 656 -17 q 492 -32 539 -35 q 145 131 303 -24 q -21 492 -12 286 l -22 492 m 54 492 q 192 180 54 319 q 503 33 331 40 q 517 33 510 33 q 529 33 524 33 q 835 176 696 38 q 974 503 974 314 q 834 827 974 692 q 514 963 694 963 q 431 953 476 963 q 338 922 385 943 q 142 772 231 876 q 54 492 54 668 l 54 492 m 317 810 l 601 810 q 749 759 699 810 q 803 649 800 708 q 803 644 803 646 q 803 640 803 642 q 752 524 803 576 q 601 481 701 472 l 776 208 l 689 208 l 514 471 l 393 471 l 393 208 l 317 208 l 317 810 l 317 810 m 579 536 q 682 568 649 536 q 715 639 715 600 q 715 641 715 640 q 715 643 715 642 q 683 712 715 681 q 590 743 650 743 l 393 743 l 393 536 l 579 536 l 579 536 z "},"©":{"ha":1028,"x_min":-47,"x_max":1050,"o":"m -33 558 q 115 876 -15 731 q 492 1039 246 1022 q 832 924 683 1053 q 1029 639 981 796 q 1044 576 1039 607 q 1050 514 1050 544 q 928 163 1050 297 q 660 -12 806 29 q 585 -28 622 -24 q 514 -32 549 -33 q 106 152 260 -24 q -32 558 -47 328 l -33 558 m 43 558 q 164 197 28 353 q 514 33 300 40 q 574 39 543 33 q 638 54 606 44 q 868 215 763 97 q 974 503 974 332 q 969 565 974 533 q 954 631 964 597 q 804 861 917 756 q 503 974 692 967 q 419 964 464 974 q 328 933 374 954 q 153 801 235 892 q 43 558 71 711 l 43 558 m 317 733 q 388 784 351 765 q 464 810 425 803 q 489 813 476 811 q 514 814 501 814 q 697 752 618 814 q 776 613 776 690 l 689 613 q 627 712 675 678 q 521 746 579 746 q 510 746 515 746 q 501 744 506 746 q 368 674 428 738 q 317 492 308 611 q 378 335 321 390 q 506 272 436 281 q 517 271 511 271 q 528 271 522 271 q 635 307 588 271 q 689 415 682 343 l 776 415 q 693 253 767 306 q 532 200 619 200 q 521 200 526 200 q 511 201 515 200 q 411 226 460 204 q 328 285 363 247 q 267 381 289 326 q 242 494 246 436 q 240 506 240 500 q 240 519 240 513 q 259 635 240 579 q 317 733 278 690 l 317 733 z "},"™":{"ha":1389,"x_min":76,"x_max":1301,"o":"m 76 1039 l 558 1039 l 558 951 l 372 951 l 372 449 l 263 449 l 263 951 l 76 951 l 76 1039 l 76 1039 m 754 940 l 754 449 l 656 449 l 656 1039 l 810 1039 l 974 624 l 1149 1039 l 1301 1039 l 1301 449 l 1203 449 l 1203 940 l 1006 449 l 940 449 l 754 940 l 754 940 z "},"´":{"ha":460,"x_min":121,"x_max":415,"o":"m 121 821 l 263 1039 l 415 1039 l 208 821 l 121 821 l 121 821 z "},"¨":{"ha":460,"x_min":33,"x_max":404,"o":"m 33 996 l 164 996 l 164 853 l 33 853 l 33 996 l 33 996 m 274 996 l 404 996 l 404 853 l 274 853 l 274 996 l 274 996 z "},"≠":{"ha":694,"x_min":0,"x_max":0,"o":""},"Æ":{"ha":1389,"x_min":11,"x_max":1313,"o":"m 426 1006 l 1290 1006 l 1290 886 l 776 886 l 776 579 l 1268 579 l 1268 460 l 776 460 l 776 121 l 1313 121 l 1313 0 l 646 0 l 646 296 l 274 296 l 153 0 l 11 0 l 426 1006 l 426 1006 m 646 415 l 646 886 l 514 886 l 328 415 l 646 415 l 646 415 z "},"Ø":{"ha":1083,"x_min":54,"x_max":1053,"o":"m 175 164 q 88 351 115 260 q 60 528 61 443 q 211 899 60 751 q 564 1047 363 1046 q 626 1043 594 1047 q 689 1031 657 1039 q 783 996 736 1018 q 875 940 831 974 l 963 1039 l 1006 996 l 918 897 q 1001 759 971 831 q 1044 614 1032 688 q 1051 566 1049 590 q 1053 518 1053 542 q 916 138 1053 303 q 576 -28 779 -26 q 421 -1 501 -28 q 258 88 340 26 q 238 104 249 96 q 218 121 228 113 l 99 -11 l 54 33 l 175 164 l 175 164 m 296 208 q 378 144 336 169 q 464 108 421 119 q 508 99 486 101 q 550 96 529 96 q 799 210 692 94 q 907 507 907 326 q 889 648 907 574 q 831 799 871 722 l 296 208 l 296 208 m 263 263 l 788 842 q 681 906 738 886 q 568 926 625 926 q 309 817 425 926 q 193 528 193 707 q 210 401 193 468 q 263 263 226 333 l 263 263 z "},"∞":{"ha":383,"x_min":0,"x_max":0,"o":""},"±":{"ha":810,"x_min":0,"x_max":0,"o":""},"≤":{"ha":694,"x_min":0,"x_max":0,"o":""},"≥":{"ha":694,"x_min":0,"x_max":0,"o":""},"¥":{"ha":776,"x_min":11,"x_max":754,"o":"m 296 492 l 11 996 l 110 996 l 383 525 l 656 996 l 754 996 l 471 492 l 678 492 l 678 426 l 438 426 l 438 317 l 689 317 l 689 251 l 438 251 l 438 0 l 328 0 l 328 251 l 76 251 l 76 317 l 328 317 l 328 426 l 88 426 l 88 492 l 296 492 l 296 492 z "},"µ":{"ha":776,"x_min":0,"x_max":0,"o":""},"∂":{"ha":694,"x_min":0,"x_max":0,"o":""},"Σ":{"ha":694,"x_min":0,"x_max":0,"o":""},"∏":{"ha":383,"x_min":0,"x_max":0,"o":""},"π":{"ha":694,"x_min":0,"x_max":0,"o":""},"∫":{"ha":383,"x_min":0,"x_max":0,"o":""},"ª":{"ha":514,"x_min":43,"x_max":460,"o":"m 54 503 l 438 503 l 438 426 l 54 426 l 54 503 l 54 503 m 54 886 q 112 1001 58 967 q 229 1038 165 1036 q 233 1038 231 1038 q 238 1038 236 1038 q 353 1013 301 1038 q 404 951 404 988 l 404 689 q 413 644 404 658 q 439 631 422 631 q 449 632 443 631 q 460 635 454 633 l 460 579 l 393 568 q 349 588 360 575 q 333 618 339 600 q 331 626 332 622 q 328 635 329 631 q 303 619 315 626 q 279 606 290 611 q 230 588 254 593 q 182 582 206 582 q 83 612 124 582 q 43 689 43 642 q 96 784 43 754 q 211 828 149 814 q 243 835 228 832 q 274 842 258 839 q 297 846 288 844 q 313 847 307 847 q 327 854 325 850 q 328 872 329 858 q 328 878 328 875 q 328 886 328 882 l 328 929 q 299 960 328 946 q 235 974 271 974 q 233 974 233 974 q 231 974 232 974 q 165 953 194 972 q 131 886 135 933 l 54 886 l 54 886 m 328 799 q 265 786 293 792 q 215 775 238 781 q 141 746 163 763 q 119 699 119 729 q 119 688 119 693 q 121 678 119 683 q 149 642 124 654 q 204 629 174 629 q 213 629 208 629 q 221 629 217 629 q 294 656 261 633 q 328 722 328 679 l 328 799 l 328 799 z "},"º":{"ha":503,"x_min":54,"x_max":468,"o":"m 438 503 l 438 426 l 65 426 l 65 503 l 438 503 l 438 503 m 54 821 q 116 993 54 936 q 254 1050 178 1050 q 258 1050 256 1050 q 261 1050 260 1050 q 404 981 340 1047 q 460 788 468 915 q 395 624 456 679 q 261 569 335 569 q 259 569 260 569 q 257 569 258 569 q 117 633 181 571 q 54 821 54 696 l 54 821 m 131 821 q 159 710 131 751 q 222 654 188 669 q 242 648 232 650 q 263 646 253 646 q 276 647 269 646 q 289 650 282 647 q 353 701 324 661 q 383 810 383 740 q 355 915 383 872 q 292 974 326 957 q 272 982 282 979 q 251 985 261 985 q 175 950 203 985 q 138 875 147 915 q 132 847 133 861 q 131 821 131 833 l 131 821 z "},"Ω":{"ha":694,"x_min":0,"x_max":0,"o":""},"æ":{"ha":1236,"x_min":35,"x_max":1174,"o":"m 635 317 q 703 142 643 200 q 835 78 764 85 q 843 76 839 76 q 851 76 847 76 q 972 118 917 76 q 1039 240 1028 160 l 1160 240 q 1060 40 1150 108 q 858 -29 969 -28 q 844 -29 851 -29 q 829 -28 836 -29 q 685 15 756 -22 q 568 121 615 51 q 528 79 549 99 q 488 44 508 60 q 387 -9 436 7 q 292 -26 338 -25 q 110 47 183 -26 q 35 210 36 119 q 35 215 35 213 q 35 219 35 217 q 126 375 39 303 q 415 460 214 447 q 433 460 424 460 q 450 461 442 460 q 501 478 478 464 q 525 536 525 493 q 484 638 529 606 q 379 669 439 669 q 367 669 374 669 q 356 668 361 669 q 239 622 292 661 q 186 514 186 582 l 65 514 q 151 706 65 644 q 338 771 236 768 q 344 771 342 771 q 350 771 347 771 q 502 739 431 771 q 601 646 574 707 q 706 726 649 697 q 819 763 763 756 q 838 763 829 763 q 856 764 847 764 q 1076 667 979 765 q 1174 382 1174 569 q 1174 350 1174 367 q 1171 317 1174 333 l 635 317 l 635 317 m 514 372 q 462 349 494 356 q 390 338 429 343 q 372 335 381 336 q 353 333 363 335 q 230 297 286 324 q 174 189 174 271 q 174 177 174 183 q 175 164 174 171 q 213 108 182 125 q 288 90 244 92 q 316 92 301 90 q 344 96 331 93 q 461 146 408 110 q 514 229 514 182 l 514 372 l 514 372 m 635 438 l 1039 438 q 981 603 1043 549 q 842 660 919 658 q 840 660 840 660 q 838 660 839 660 q 698 603 761 658 q 635 438 635 547 l 635 438 z "},"ø":{"ha":853,"x_min":11,"x_max":722,"o":"m 590 667 l 678 765 l 722 733 l 624 613 q 679 472 663 540 q 696 342 696 403 q 598 75 697 178 q 363 -28 499 -28 q 297 -22 331 -28 q 231 -3 264 -15 q 181 22 206 7 q 131 54 156 36 l 54 -33 l 11 0 l 99 99 q 38 239 57 169 q 19 372 19 308 q 124 653 19 540 q 363 767 228 767 q 396 765 379 767 q 428 758 413 763 q 510 726 469 749 q 590 667 551 704 l 590 667 m 218 153 q 294 106 257 121 q 365 90 331 90 q 509 167 451 90 q 567 357 567 244 q 559 434 567 394 q 536 514 551 474 l 218 153 l 218 153 m 186 197 l 503 568 q 437 625 472 607 q 365 643 401 643 q 219 568 285 643 q 153 368 154 493 q 160 286 153 329 q 186 197 168 243 l 186 197 z "},"¿":{"ha":853,"x_min":110,"x_max":729,"o":"m 361 460 l 492 460 q 483 331 492 394 q 426 218 475 268 l 328 131 q 303 106 314 118 q 283 82 292 93 q 258 33 265 57 q 250 -14 250 8 q 303 -129 250 -81 q 418 -183 356 -178 q 426 -185 422 -185 q 433 -185 429 -185 q 542 -136 494 -186 q 590 33 590 -86 l 722 33 q 640 -224 729 -146 q 438 -301 550 -301 q 428 -301 433 -301 q 418 -301 424 -301 q 207 -222 303 -294 q 110 -37 111 -150 q 138 74 110 14 q 229 197 165 133 l 317 285 q 336 308 329 297 q 349 328 343 318 q 356 358 354 343 q 357 390 357 372 q 358 422 357 406 q 361 460 358 439 l 361 460 m 361 733 l 492 733 l 492 579 l 361 579 l 361 733 l 361 733 z "},"¡":{"ha":460,"x_min":153,"x_max":274,"o":"m 175 492 l 251 492 l 274 218 l 274 -296 l 153 -296 l 153 218 l 175 492 l 175 492 m 274 733 l 274 579 l 153 579 l 153 733 l 274 733 l 274 733 z "},"¬":{"ha":810,"x_min":43,"x_max":754,"o":"m 646 393 l 43 393 l 43 492 l 754 492 l 754 110 l 646 110 l 646 393 l 646 393 z "},"√":{"ha":694,"x_min":0,"x_max":0,"o":""},"ƒ":{"ha":776,"x_min":11,"x_max":754,"o":"m 11 -285 l 33 -153 q 73 -165 54 -161 q 107 -169 92 -169 q 193 -129 163 -169 q 229 -32 224 -89 l 339 558 l 186 558 l 186 656 l 361 656 q 451 937 394 838 q 629 1038 507 1036 q 688 1033 657 1038 q 754 1017 719 1028 l 711 897 q 671 917 690 911 q 633 924 651 924 q 540 856 576 925 q 492 656 504 788 l 646 656 l 646 558 l 471 558 l 372 22 q 284 -212 343 -135 q 93 -289 225 -289 q 54 -287 75 -289 q 11 -283 33 -286 l 11 -285 z "},"≈":{"ha":694,"x_min":0,"x_max":0,"o":""},"∆":{"ha":694,"x_min":0,"x_max":0,"o":""},"«":{"ha":776,"x_min":121,"x_max":624,"o":"m 121 449 l 339 613 l 339 503 l 197 393 l 339 274 l 339 164 l 121 328 l 121 449 l 121 449 m 404 449 l 624 613 l 624 503 l 481 393 l 624 274 l 624 164 l 404 328 l 404 449 l 404 449 z "},"»":{"ha":776,"x_min":142,"x_max":635,"o":"m 285 393 l 142 514 l 142 624 l 361 460 l 361 328 l 142 164 l 142 274 l 285 393 l 285 393 m 558 393 l 415 514 l 415 624 l 635 460 l 635 328 l 415 164 l 415 274 l 558 393 l 558 393 z "},"…":{"ha":1389,"x_min":153,"x_max":1236,"o":"m 153 0 l 153 153 l 306 153 l 306 0 l 153 0 l 153 0 m 613 0 l 613 153 l 765 153 l 765 0 l 613 0 l 613 0 m 1083 0 l 1083 153 l 1236 153 l 1236 0 l 1083 0 l 1083 0 z "},"À":{"ha":929,"x_min":22,"x_max":918,"o":"m 22 0 l 383 1017 l 547 1017 l 918 0 l 765 0 l 656 296 l 274 296 l 175 0 l 22 0 l 22 0 m 306 415 l 613 415 l 471 842 l 306 415 l 306 415 m 251 1313 l 404 1313 l 547 1104 l 449 1104 l 251 1313 l 251 1313 z "},"Ã":{"ha":929,"x_min":33,"x_max":929,"o":"m 33 0 l 393 1017 l 558 1017 l 929 0 l 776 0 l 667 296 l 285 296 l 186 0 l 33 0 l 33 0 m 317 415 l 624 415 l 481 842 l 317 415 l 317 415 m 229 1093 q 238 1124 232 1106 q 253 1164 243 1143 q 292 1223 267 1196 q 360 1250 318 1250 q 365 1250 363 1250 q 372 1249 368 1250 q 378 1248 375 1249 q 383 1247 381 1247 l 492 1225 q 510 1222 501 1224 q 525 1221 518 1221 q 571 1235 553 1221 q 601 1279 589 1249 l 667 1279 q 661 1260 664 1269 q 656 1240 658 1250 q 612 1160 640 1197 q 526 1124 583 1124 q 510 1124 518 1124 q 492 1126 501 1125 l 383 1149 q 375 1150 379 1150 q 367 1151 371 1150 q 363 1151 364 1151 q 358 1151 361 1151 q 317 1136 331 1151 q 296 1093 303 1121 l 229 1093 l 229 1093 z "},"Õ":{"ha":1083,"x_min":43,"x_max":1028,"o":"m 43 568 q 46 615 43 592 q 53 663 49 639 q 208 929 85 808 q 536 1050 331 1050 q 586 1048 561 1050 q 636 1040 611 1046 q 900 894 779 1014 q 1028 525 1021 775 q 897 151 1028 311 q 503 -10 765 -10 q 158 152 274 -10 q 43 568 43 314 l 43 568 m 175 503 q 185 429 178 469 q 207 347 192 389 q 304 191 236 263 q 503 110 372 119 q 522 108 513 108 q 540 107 531 107 q 786 224 678 107 q 886 579 894 340 q 785 824 878 719 q 536 929 692 929 q 500 927 518 929 q 464 921 482 925 q 265 799 356 899 q 175 503 175 700 l 175 503 m 296 1104 q 303 1135 299 1117 q 318 1175 308 1154 q 358 1234 332 1207 q 425 1261 383 1261 q 431 1261 428 1261 q 438 1260 433 1261 q 443 1259 440 1260 q 449 1258 446 1258 l 558 1236 q 570 1234 565 1235 q 581 1232 575 1233 q 586 1232 583 1232 q 592 1232 589 1232 q 636 1246 618 1232 q 667 1290 654 1260 l 733 1290 q 728 1271 731 1281 q 721 1251 725 1261 q 677 1172 706 1208 q 592 1135 649 1135 q 576 1135 585 1135 q 558 1138 568 1136 l 449 1160 q 440 1161 444 1161 q 432 1163 436 1161 q 428 1163 429 1163 q 424 1163 426 1163 q 382 1147 396 1163 q 361 1104 368 1132 l 296 1104 l 296 1104 z "},"Œ":{"ha":1389,"x_min":65,"x_max":1346,"o":"m 733 908 l 733 1017 l 1335 1017 l 1335 897 l 875 897 l 875 579 l 1324 579 l 1324 460 l 875 460 l 875 121 l 1346 121 l 1346 0 l 733 0 l 733 99 q 631 2 700 36 q 479 -32 561 -32 q 444 -31 461 -32 q 408 -25 426 -29 q 173 121 281 -1 q 65 492 65 243 q 175 872 69 747 q 407 1024 281 996 q 448 1030 428 1028 q 489 1032 468 1032 q 640 999 572 1032 q 733 908 707 965 l 733 908 m 733 251 l 733 733 q 644 867 718 815 q 483 919 571 919 q 475 919 479 919 q 465 919 471 919 q 290 828 371 913 q 197 547 210 743 q 275 197 183 307 q 479 85 367 88 q 483 85 481 85 q 486 85 485 85 q 632 128 564 85 q 733 251 700 172 l 733 251 z "},"œ":{"ha":1313,"x_min":39,"x_max":1250,"o":"m 711 328 q 710 322 711 325 q 710 317 710 319 q 710 311 710 314 q 710 306 710 308 q 778 139 710 204 q 928 72 846 74 q 931 72 929 72 q 936 72 933 72 q 1038 112 989 75 q 1115 229 1088 149 l 1236 229 q 1124 31 1214 96 q 932 -35 1035 -33 q 929 -35 931 -35 q 926 -35 928 -35 q 767 4 843 -36 q 656 121 692 44 q 538 4 610 42 q 389 -33 467 -33 q 383 -33 386 -33 q 378 -33 381 -33 q 144 70 250 -29 q 43 350 39 169 q 144 647 47 547 q 357 760 242 747 q 374 762 365 761 q 390 763 382 763 q 543 721 472 763 q 646 601 614 679 q 764 709 697 672 q 900 751 831 746 q 913 753 907 753 q 926 753 919 753 q 1151 658 1051 753 q 1250 386 1250 564 q 1249 358 1250 372 q 1247 328 1249 343 l 711 328 l 711 328 m 164 350 q 240 136 179 203 q 369 69 300 69 q 372 69 371 69 q 374 69 372 69 q 517 143 451 71 q 590 339 582 215 q 531 563 599 483 q 379 644 463 643 q 377 644 378 644 q 375 644 376 644 q 233 574 297 644 q 164 350 168 503 l 164 350 m 722 438 l 1115 438 q 1048 588 1100 540 q 933 635 996 635 q 923 635 928 635 q 913 633 918 635 q 797 575 851 626 q 722 438 742 524 l 722 438 z "},"—":{"ha":1389,"x_min":-22,"x_max":1400,"o":"m -22 449 l 1367 449 l 1400 449 l 1400 328 l 11 328 l -22 328 l -22 449 l -22 449 z "},"“":{"ha":460,"x_min":54,"x_max":415,"o":"m 274 635 l 274 788 q 274 801 274 794 q 275 814 275 807 q 319 924 282 874 q 415 974 357 974 l 415 918 q 365 874 383 903 q 339 788 347 844 l 404 788 l 404 635 l 274 635 l 274 635 m 54 646 l 54 799 q 55 812 54 806 q 56 825 56 818 q 101 935 64 885 q 197 985 139 985 l 197 929 q 146 885 164 914 q 121 799 128 856 l 186 799 l 186 646 l 54 646 l 54 646 z "},"”":{"ha":460,"x_min":54,"x_max":404,"o":"m 121 853 l 54 853 l 54 996 l 186 996 l 186 853 q 161 731 186 788 q 54 667 136 675 l 54 722 q 55 722 54 722 q 56 722 56 722 q 63 725 60 724 q 71 728 67 726 q 109 760 92 736 q 121 853 126 783 l 121 853 m 339 853 l 274 853 l 274 996 l 404 996 l 404 853 q 380 731 404 788 q 274 667 356 675 l 274 722 q 274 722 274 722 q 275 722 275 722 q 284 726 279 724 q 293 729 289 728 q 326 755 311 736 q 340 821 340 774 q 340 835 340 828 q 339 853 340 843 l 339 853 z "},"‘":{"ha":306,"x_min":88,"x_max":229,"o":"m 88 646 l 88 799 q 88 812 88 806 q 89 825 89 818 q 133 935 96 885 q 229 985 171 985 l 229 929 q 179 885 197 914 q 153 799 161 856 l 218 799 l 218 646 l 88 646 l 88 646 z "},"’":{"ha":306,"x_min":76,"x_max":208,"o":"m 142 842 l 76 842 l 76 985 l 208 985 l 208 842 q 183 720 208 776 q 76 656 158 664 l 76 711 q 85 714 81 713 q 93 717 89 715 q 127 742 111 724 q 143 808 143 761 q 143 824 143 815 q 142 842 143 832 l 142 842 z "},"÷":{"ha":810,"x_min":0,"x_max":0,"o":""},"◊":{"ha":694,"x_min":0,"x_max":0,"o":""},"ÿ":{"ha":700,"x_min":22,"x_max":678,"o":"m 65 -274 l 65 -164 q 106 -169 88 -167 q 139 -172 124 -172 q 207 -143 181 -172 q 257 -28 233 -114 q 260 -19 258 -24 q 263 -10 261 -14 l 22 743 l 153 743 l 339 175 l 547 743 l 678 743 l 339 -164 q 276 -253 317 -222 q 190 -292 235 -283 q 173 -294 182 -293 q 156 -294 164 -294 q 108 -289 131 -294 q 65 -272 85 -283 l 65 -274 m 153 996 l 285 996 l 285 853 l 153 853 l 153 996 l 153 996 m 393 996 l 525 996 l 525 853 l 393 853 l 393 996 l 393 996 z "},"Ÿ":{"ha":694,"x_min":0,"x_max":0,"o":""},"∕":{"ha":694,"x_min":0,"x_max":0,"o":""},"¤":{"ha":776,"x_min":99,"x_max":689,"o":"m 689 678 l 613 601 q 647 536 636 567 q 657 476 657 506 q 647 411 658 444 q 613 339 635 378 l 689 263 l 601 186 l 525 263 q 462 228 499 240 q 385 215 425 217 q 320 224 351 215 q 263 251 289 233 l 186 175 l 110 263 l 175 328 q 140 393 153 354 q 125 474 126 432 q 125 483 125 478 q 126 492 125 488 q 140 555 128 524 q 175 613 153 586 l 99 689 l 175 776 l 263 689 q 323 717 290 708 q 390 726 356 726 q 463 717 428 726 q 525 689 499 707 l 601 765 l 689 678 l 689 678 m 372 613 q 279 561 308 601 q 250 474 250 521 q 250 472 250 472 q 250 469 250 471 q 286 372 250 417 q 383 328 322 328 q 491 369 457 328 q 525 461 525 410 q 525 463 525 463 q 525 465 525 464 q 485 569 525 522 q 372 613 444 617 l 372 613 z "},"‹":{"ha":460,"x_min":121,"x_max":339,"o":"m 121 449 l 339 613 l 339 503 l 197 393 l 339 274 l 339 164 l 121 328 l 121 449 l 121 449 z "},"›":{"ha":460,"x_min":110,"x_max":328,"o":"m 251 393 l 110 514 l 110 624 l 328 460 l 328 328 l 110 164 l 110 274 l 251 393 l 251 393 z "},"":{"ha":700,"x_min":11,"x_max":613,"o":"m 11 733 l 110 733 l 110 886 q 133 959 110 929 q 185 1006 157 989 q 224 1022 206 1017 q 251 1028 242 1028 l 350 1028 l 350 918 l 296 918 q 246 911 263 918 q 229 864 229 904 l 229 733 l 350 733 l 350 624 l 229 624 l 229 0 l 110 0 l 110 624 l 11 624 l 11 733 l 11 733 m 492 733 l 601 733 l 601 0 l 492 0 l 492 733 l 492 733 m 492 1017 l 613 1017 l 613 864 l 492 864 l 492 1017 l 492 1017 z "},"":{"ha":700,"x_min":22,"x_max":601,"o":"m 22 733 l 121 733 l 121 875 q 156 962 121 921 q 232 1019 190 1003 q 253 1026 243 1024 q 274 1028 264 1028 l 361 1028 l 361 918 l 306 918 q 257 901 274 918 q 240 842 240 883 l 240 733 l 361 733 l 361 624 l 240 624 l 240 0 l 131 0 l 131 624 l 22 624 l 22 733 l 22 733 m 481 1017 l 601 1017 l 601 0 l 481 0 l 481 1017 l 481 1017 z "},"‡":{"ha":776,"x_min":54,"x_max":722,"o":"m 54 722 l 328 722 l 328 1017 l 471 1017 l 471 722 l 722 722 l 722 601 l 471 601 l 471 175 l 711 175 l 711 54 l 471 54 l 471 -240 l 328 -240 l 328 54 l 65 54 l 65 175 l 328 175 l 328 601 l 54 601 l 54 722 l 54 722 z "},"∙":{"ha":481,"x_min":135,"x_max":315,"o":"m 296 601 q 310 570 306 585 q 315 542 315 556 q 287 484 315 504 q 224 463 258 464 q 222 463 222 463 q 219 463 221 463 q 182 469 200 463 q 153 492 164 476 q 147 501 150 496 q 143 510 144 506 q 137 528 139 519 q 135 546 135 538 q 163 609 135 583 q 225 635 190 635 q 263 627 244 635 q 296 601 281 619 l 296 601 z "},"‚":{"ha":694,"x_min":0,"x_max":0,"o":""},"„":{"ha":460,"x_min":65,"x_max":415,"o":"m 131 11 l 65 11 l 65 153 l 197 153 l 197 11 q 172 -109 197 -53 q 65 -174 147 -165 l 65 -121 q 74 -117 69 -118 q 82 -114 78 -115 q 116 -88 100 -107 q 132 -21 132 -69 q 132 -6 132 -14 q 131 11 132 1 l 131 11 m 350 11 l 285 11 l 285 153 l 415 153 l 415 11 q 391 -109 415 -53 q 285 -174 367 -165 l 285 -121 q 294 -116 289 -118 q 304 -112 299 -114 q 337 -85 322 -104 q 351 -19 351 -67 q 351 -6 351 -12 q 350 11 351 1 l 350 11 z "},"‰":{"ha":1389,"x_min":-6,"x_max":1354,"o":"m 1149 393 q 1304 329 1254 393 q 1354 188 1354 265 q 1354 181 1354 185 q 1354 175 1354 178 q 1301 35 1351 99 q 1160 -32 1251 -28 q 997 31 1051 -36 q 940 178 942 97 q 940 181 940 179 q 940 186 940 183 q 994 326 943 263 q 1149 393 1046 390 l 1149 393 m 1072 274 q 1056 251 1063 263 q 1043 229 1049 240 q 1037 207 1039 218 q 1035 185 1035 196 q 1072 101 1035 136 q 1151 61 1108 65 q 1156 61 1154 61 q 1160 61 1158 61 q 1201 70 1181 61 q 1236 99 1221 79 q 1250 118 1244 108 q 1260 138 1256 128 q 1265 157 1263 147 q 1267 176 1267 167 q 1229 263 1267 226 q 1143 300 1192 300 q 1107 295 1125 301 q 1072 274 1089 289 l 1072 274 m 667 1028 l 765 1028 l 218 -22 l 121 -22 l 667 1028 l 667 1028 m 667 393 q 807 328 757 393 q 860 185 857 263 q 860 180 860 182 q 860 176 860 178 q 814 40 861 101 q 667 -21 767 -21 q 497 38 553 -25 q 442 178 442 100 q 442 183 442 181 q 442 189 442 186 q 503 329 446 265 q 667 393 560 393 l 667 393 m 568 274 q 554 253 560 264 q 544 233 549 243 q 539 212 540 222 q 538 192 538 201 q 572 105 536 142 q 656 67 608 68 q 695 74 675 67 q 733 99 715 82 q 760 135 751 115 q 768 178 768 156 q 737 266 769 226 q 653 306 704 306 q 613 299 633 306 q 568 274 592 292 l 568 274 m 208 1017 q 363 949 314 1013 q 411 808 411 885 q 364 666 411 731 q 229 601 317 601 q 57 667 117 601 q -6 810 -3 732 q -6 815 -6 813 q -6 818 -6 817 q 47 952 -6 892 q 208 1017 99 1013 l 208 1017 m 110 886 q 92 849 97 868 q 86 813 86 831 q 126 724 86 761 q 214 688 165 688 q 257 696 236 688 q 296 722 278 704 q 324 763 315 742 q 333 804 333 783 q 293 893 333 854 q 201 932 253 932 q 154 922 178 932 q 110 886 131 911 l 110 886 z "},"Â":{"ha":929,"x_min":22,"x_max":918,"o":"m 22 0 l 383 1017 l 547 1017 l 918 0 l 765 0 l 656 296 l 274 296 l 175 0 l 22 0 l 22 0 m 306 415 l 613 415 l 471 842 l 306 415 l 306 415 m 438 1236 l 328 1093 l 229 1093 l 372 1313 l 503 1313 l 646 1093 l 547 1093 l 438 1236 l 438 1236 z "},"Ê":{"ha":929,"x_min":121,"x_max":842,"o":"m 121 0 l 121 1017 l 821 1017 l 821 908 l 251 908 l 251 579 l 799 579 l 799 460 l 251 460 l 251 121 l 842 121 l 842 0 l 121 0 l 121 0 m 481 1236 l 372 1093 l 274 1093 l 415 1313 l 547 1313 l 689 1093 l 590 1093 l 481 1236 l 481 1236 z "},"Á":{"ha":929,"x_min":11,"x_max":908,"o":"m 11 0 l 372 1017 l 536 1017 l 908 0 l 754 0 l 646 296 l 263 296 l 164 0 l 11 0 l 11 0 m 296 415 l 601 415 l 460 842 l 296 415 l 296 415 m 350 1104 l 492 1324 l 646 1324 l 438 1104 l 350 1104 l 350 1104 z "},"Ë":{"ha":929,"x_min":131,"x_max":853,"o":"m 131 0 l 131 1017 l 831 1017 l 831 908 l 263 908 l 263 579 l 810 579 l 810 460 l 263 460 l 263 121 l 853 121 l 853 0 l 131 0 l 131 0 m 306 1247 l 438 1247 l 438 1104 l 306 1104 l 306 1247 l 306 1247 m 547 1247 l 678 1247 l 678 1104 l 547 1104 l 547 1247 l 547 1247 z "},"È":{"ha":929,"x_min":121,"x_max":842,"o":"m 121 0 l 121 1017 l 821 1017 l 821 908 l 251 908 l 251 579 l 799 579 l 799 460 l 251 460 l 251 121 l 842 121 l 842 0 l 121 0 l 121 0 m 285 1313 l 438 1313 l 579 1104 l 481 1104 l 285 1313 l 285 1313 z "},"Í":{"ha":383,"x_min":88,"x_max":383,"o":"m 131 0 l 131 1017 l 263 1017 l 263 0 l 131 0 l 131 0 m 88 1115 l 229 1335 l 383 1335 l 175 1115 l 88 1115 l 88 1115 z "},"Î":{"ha":383,"x_min":-11,"x_max":404,"o":"m 131 0 l 131 1017 l 263 1017 l 263 0 l 131 0 l 131 0 m 197 1247 l 88 1104 l -11 1104 l 131 1324 l 263 1324 l 404 1104 l 306 1104 l 197 1247 l 197 1247 z "},"Ï":{"ha":383,"x_min":11,"x_max":383,"o":"m 131 0 l 131 1017 l 263 1017 l 263 0 l 131 0 l 131 0 m 11 1268 l 142 1268 l 142 1126 l 11 1126 l 11 1268 l 11 1268 m 251 1268 l 383 1268 l 383 1126 l 251 1126 l 251 1268 l 251 1268 z "},"Ì":{"ha":383,"x_min":11,"x_max":306,"o":"m 131 0 l 131 1017 l 263 1017 l 263 0 l 131 0 l 131 0 m 11 1313 l 164 1313 l 306 1104 l 208 1104 l 11 1313 l 11 1313 z "},"Ó":{"ha":1083,"x_min":54,"x_max":1039,"o":"m 54 568 q 57 615 54 592 q 64 663 60 639 q 219 929 96 808 q 547 1050 342 1050 q 597 1048 572 1050 q 647 1040 622 1046 q 911 894 790 1014 q 1039 525 1032 775 q 908 151 1039 311 q 514 -10 776 -10 q 169 152 285 -10 q 54 568 54 314 l 54 568 m 186 503 q 196 429 189 469 q 218 347 203 389 q 315 191 247 263 q 514 110 383 119 q 533 108 524 108 q 551 107 542 107 q 797 224 689 107 q 897 579 906 340 q 796 824 889 719 q 547 929 703 929 q 511 927 529 929 q 475 921 493 925 q 276 799 367 899 q 186 503 186 700 l 186 503 m 415 1104 l 558 1324 l 711 1324 l 503 1104 l 415 1104 l 415 1104 z "},"Ô":{"ha":1083,"x_min":43,"x_max":1028,"o":"m 43 568 q 46 615 43 592 q 53 663 49 639 q 208 929 85 808 q 536 1050 331 1050 q 586 1048 561 1050 q 636 1040 611 1046 q 900 894 779 1014 q 1028 525 1021 775 q 897 151 1028 311 q 503 -10 765 -10 q 158 152 274 -10 q 43 568 43 314 l 43 568 m 175 503 q 185 429 178 469 q 207 347 192 389 q 304 191 236 263 q 503 110 372 119 q 522 108 513 108 q 540 107 531 107 q 786 224 678 107 q 886 579 894 340 q 785 824 878 719 q 536 929 692 929 q 500 927 518 929 q 464 921 482 925 q 265 799 356 899 q 175 503 175 700 l 175 503 m 525 1247 l 415 1104 l 317 1104 l 460 1324 l 590 1324 l 733 1104 l 635 1104 l 525 1247 l 525 1247 z "},"":{"ha":383,"x_min":0,"x_max":0,"o":""},"Ò":{"ha":383,"x_min":0,"x_max":0,"o":""},"Ú":{"ha":1006,"x_min":110,"x_max":897,"o":"m 110 306 l 110 1028 l 251 1028 l 251 306 q 330 140 251 196 q 501 85 408 85 q 675 140 596 85 q 754 306 754 196 l 754 1028 l 897 1028 l 897 306 q 776 66 897 150 q 508 -21 654 -18 q 503 -21 506 -21 q 500 -21 501 -21 q 243 57 361 -22 q 110 306 125 136 l 110 306 m 393 1093 l 536 1313 l 689 1313 l 481 1093 l 393 1093 l 393 1093 z "},"Û":{"ha":1006,"x_min":110,"x_max":897,"o":"m 110 306 l 110 1028 l 251 1028 l 251 306 q 330 140 251 196 q 501 85 408 85 q 675 140 596 85 q 754 306 754 196 l 754 1028 l 897 1028 l 897 306 q 776 66 897 150 q 508 -21 654 -18 q 503 -21 506 -21 q 500 -21 501 -21 q 243 57 361 -22 q 110 306 125 136 l 110 306 m 492 1236 l 383 1093 l 285 1093 l 426 1313 l 558 1313 l 700 1093 l 601 1093 l 492 1236 l 492 1236 z "},"Ù":{"ha":1006,"x_min":110,"x_max":897,"o":"m 110 306 l 110 1028 l 251 1028 l 251 306 q 330 140 251 196 q 501 85 408 85 q 675 140 596 85 q 754 306 754 196 l 754 1028 l 897 1028 l 897 306 q 776 66 897 150 q 508 -21 654 -18 q 503 -21 506 -21 q 500 -21 501 -21 q 243 57 361 -22 q 110 306 125 136 l 110 306 m 306 1313 l 460 1313 l 601 1104 l 503 1104 l 306 1313 l 306 1313 z "},"ı":{"ha":383,"x_min":121,"x_max":240,"o":"m 121 733 l 240 733 l 240 0 l 121 0 l 121 733 l 121 733 z "},"˜":{"ha":460,"x_min":11,"x_max":426,"o":"m 218 963 l 110 821 l 11 821 l 153 1039 l 285 1039 l 426 821 l 328 821 l 218 963 l 218 963 z "},"ˆ":{"ha":460,"x_min":0,"x_max":438,"o":"m 0 831 q 8 862 3 843 q 22 901 14 881 q 63 960 38 933 q 129 988 88 988 q 135 988 132 988 q 142 986 138 988 q 147 985 144 986 q 153 985 150 985 l 263 963 q 274 960 269 961 q 285 958 279 960 q 290 958 288 958 q 296 958 293 958 q 341 972 322 958 q 372 1017 360 986 l 438 1017 q 432 997 435 1007 q 426 978 429 988 q 383 898 411 935 q 297 861 354 861 q 281 862 289 861 q 263 864 272 863 l 153 886 q 141 888 147 888 q 129 889 135 889 q 87 874 101 889 q 65 831 72 858 l 0 831 l 0 831 z "},"ˉ":{"ha":694,"x_min":0,"x_max":0,"o":""},"˘":{"ha":460,"x_min":22,"x_max":460,"o":"m 22 1039 l 76 1039 q 104 983 85 1007 q 197 951 124 960 l 306 951 q 367 971 339 951 q 404 1039 396 990 l 460 1039 q 366 876 426 900 q 240 853 306 853 q 87 897 143 844 q 22 1039 31 949 l 22 1039 z "},"˙":{"ha":694,"x_min":0,"x_max":0,"o":""},"˚":{"ha":460,"x_min":100,"x_max":351,"o":"m 229 1039 q 320 1001 290 1039 q 351 918 350 964 q 318 833 351 871 q 218 799 285 794 q 128 836 157 803 q 100 911 100 869 q 100 915 100 913 q 100 919 100 917 q 137 1001 103 964 q 229 1039 171 1039 l 229 1039 m 153 918 q 174 863 153 881 q 222 844 196 844 q 224 844 224 844 q 226 844 225 844 q 271 861 250 844 q 296 908 292 878 q 296 913 296 911 q 296 917 296 915 q 278 966 297 949 q 235 988 258 983 q 231 988 233 988 q 228 988 229 988 q 179 971 201 988 q 153 918 157 954 l 153 918 z "},"¸":{"ha":460,"x_min":65,"x_max":417,"o":"m 240 0 l 306 0 l 285 -76 q 301 -73 293 -74 q 317 -72 310 -72 q 392 -98 367 -71 q 417 -161 417 -125 q 416 -172 417 -167 q 414 -183 415 -178 q 362 -265 406 -228 q 238 -301 318 -301 q 158 -292 201 -301 q 65 -261 115 -283 l 99 -197 q 177 -228 143 -219 q 235 -237 211 -237 q 287 -221 271 -237 q 303 -183 303 -204 q 303 -181 303 -182 q 303 -179 303 -181 q 288 -143 301 -160 q 254 -126 274 -126 q 237 -130 246 -126 q 218 -140 228 -133 l 197 -131 l 240 0 l 240 0 z "},"ʺ":{"ha":694,"x_min":0,"x_max":0,"o":""},"˛":{"ha":694,"x_min":0,"x_max":0,"o":""},"ˇ":{"ha":694,"x_min":0,"x_max":0,"o":""},"Ł":{"ha":694,"x_min":0,"x_max":0,"o":""},"ł":{"ha":694,"x_min":0,"x_max":0,"o":""},"Š":{"ha":694,"x_min":0,"x_max":0,"o":""},"š":{"ha":694,"x_min":0,"x_max":0,"o":""},"Ž":{"ha":694,"x_min":0,"x_max":0,"o":""},"ž":{"ha":694,"x_min":0,"x_max":0,"o":""},"¦":{"ha":229,"x_min":142,"x_max":218,"o":"m 218 1017 l 218 -306 l 142 -306 l 142 1017 l 218 1017 l 218 1017 z "},"Ð":{"ha":1006,"x_min":0,"x_max":0,"o":""},"ð":{"ha":776,"x_min":0,"x_max":0,"o":""},"Ý":{"ha":383,"x_min":0,"x_max":0,"o":""},"ý":{"ha":383,"x_min":0,"x_max":0,"o":""},"Þ":{"ha":929,"x_min":0,"x_max":0,"o":""},"þ":{"ha":776,"x_min":0,"x_max":0,"o":""},"−":{"ha":694,"x_min":0,"x_max":0,"o":""},"×":{"ha":694,"x_min":0,"x_max":0,"o":""},"¹":{"ha":460,"x_min":0,"x_max":0,"o":""},"²":{"ha":460,"x_min":0,"x_max":0,"o":""},"³":{"ha":460,"x_min":0,"x_max":0,"o":""},"½":{"ha":1160,"x_min":0,"x_max":0,"o":""},"¼":{"ha":1160,"x_min":0,"x_max":0,"o":""},"¾":{"ha":1160,"x_min":0,"x_max":0,"o":""},"₣":{"ha":694,"x_min":0,"x_max":0,"o":""},"Ğ":{"ha":383,"x_min":0,"x_max":0,"o":""},"ğ":{"ha":383,"x_min":0,"x_max":0,"o":""},"İ":{"ha":383,"x_min":0,"x_max":0,"o":""},"Ş":{"ha":383,"x_min":0,"x_max":0,"o":""},"ş":{"ha":383,"x_min":0,"x_max":0,"o":""},"Ć":{"ha":383,"x_min":0,"x_max":0,"o":""},"ć":{"ha":383,"x_min":0,"x_max":0,"o":""},"Č":{"ha":383,"x_min":0,"x_max":0,"o":""},"č":{"ha":383,"x_min":0,"x_max":0,"o":""},"đ":{"ha":383,"x_min":0,"x_max":0,"o":""},"→":{"ha":694,"x_min":0,"x_max":0,"o":""},"⌂":{"ha":383,"x_min":0,"x_max":0,"o":""},"–":{"ha":776,"x_min":-11,"x_max":776,"o":"m -11 350 l -11 449 l 776 449 l 776 350 l -11 350 l -11 350 z "},"­":{"ha":694,"x_min":0,"x_max":0,"o":""},"■":{"ha":694,"x_min":0,"x_max":0,"o":""},"•":{"ha":383,"x_min":57,"x_max":417,"o":"m 99 613 q 154 659 124 643 q 217 678 185 675 q 223 678 219 678 q 231 678 226 678 q 358 628 300 678 q 417 507 417 579 q 409 458 417 483 q 383 404 401 432 q 318 343 357 363 q 239 324 279 324 q 115 370 171 324 q 58 492 58 417 q 67 550 57 519 q 99 613 76 581 l 99 613 z "},"¯":{"ha":383,"x_min":0,"x_max":0,"o":""},"°":{"ha":694,"x_min":0,"x_max":0,"o":""},"·":{"ha":383,"x_min":0,"x_max":0,"o":""},"‗":{"ha":694,"x_min":0,"x_max":0,"o":""},"‼":{"ha":694,"x_min":0,"x_max":0,"o":""},"ⁿ":{"ha":694,"x_min":0,"x_max":0,"o":""},"₧":{"ha":694,"x_min":0,"x_max":0,"o":""},"Γ":{"ha":694,"x_min":0,"x_max":0,"o":""},"Θ":{"ha":694,"x_min":0,"x_max":0,"o":""},"Φ":{"ha":694,"x_min":0,"x_max":0,"o":""},"α":{"ha":694,"x_min":0,"x_max":0,"o":""},"δ":{"ha":694,"x_min":0,"x_max":0,"o":""},"ε":{"ha":694,"x_min":0,"x_max":0,"o":""},"σ":{"ha":383,"x_min":0,"x_max":0,"o":""},"τ":{"ha":694,"x_min":0,"x_max":0,"o":""},"φ":{"ha":383,"x_min":0,"x_max":0,"o":""},"←":{"ha":383,"x_min":0,"x_max":0,"o":""},"↑":{"ha":383,"x_min":0,"x_max":0,"o":""},"↓":{"ha":383,"x_min":0,"x_max":0,"o":""},"↔":{"ha":383,"x_min":0,"x_max":0,"o":""},"↕":{"ha":383,"x_min":0,"x_max":0,"o":""},"↨":{"ha":383,"x_min":0,"x_max":0,"o":""},"∟":{"ha":383,"x_min":0,"x_max":0,"o":""},"∩":{"ha":383,"x_min":0,"x_max":0,"o":""},"≡":{"ha":383,"x_min":0,"x_max":0,"o":""},"⌐":{"ha":383,"x_min":0,"x_max":0,"o":""},"⌠":{"ha":383,"x_min":0,"x_max":0,"o":""},"⌡":{"ha":383,"x_min":0,"x_max":0,"o":""},"▬":{"ha":383,"x_min":0,"x_max":0,"o":""},"○":{"ha":383,"x_min":0,"x_max":0,"o":""},"▲":{"ha":383,"x_min":0,"x_max":0,"o":""},"►":{"ha":383,"x_min":0,"x_max":0,"o":""},"▼":{"ha":383,"x_min":0,"x_max":0,"o":""},"◄":{"ha":383,"x_min":0,"x_max":0,"o":""},"◘":{"ha":383,"x_min":0,"x_max":0,"o":""},"◙":{"ha":383,"x_min":0,"x_max":0,"o":""},"Ř":{"ha":383,"x_min":0,"x_max":0,"o":""},"▀":{"ha":383,"x_min":0,"x_max":0,"o":""},"▄":{"ha":383,"x_min":0,"x_max":0,"o":""},"█":{"ha":383,"x_min":0,"x_max":0,"o":""},"▌":{"ha":383,"x_min":0,"x_max":0,"o":""},"▐":{"ha":383,"x_min":0,"x_max":0,"o":""},"░":{"ha":383,"x_min":0,"x_max":0,"o":""},"▒":{"ha":383,"x_min":0,"x_max":0,"o":""},"▓":{"ha":383,"x_min":0,"x_max":0,"o":""},"☺":{"ha":383,"x_min":0,"x_max":0,"o":""},"☻":{"ha":383,"x_min":0,"x_max":0,"o":""},"☼":{"ha":383,"x_min":0,"x_max":0,"o":""},"♀":{"ha":383,"x_min":0,"x_max":0,"o":""},"♂":{"ha":383,"x_min":0,"x_max":0,"o":""},"♠":{"ha":383,"x_min":0,"x_max":0,"o":""},"♣":{"ha":383,"x_min":0,"x_max":0,"o":""},"♥":{"ha":383,"x_min":0,"x_max":0,"o":""},"♦":{"ha":383,"x_min":0,"x_max":0,"o":""},"♪":{"ha":383,"x_min":0,"x_max":0,"o":""},"♫":{"ha":383,"x_min":0,"x_max":0,"o":""},"Ă":{"ha":383,"x_min":0,"x_max":0,"o":""},"ă":{"ha":383,"x_min":0,"x_max":0,"o":""},"Ą":{"ha":383,"x_min":0,"x_max":0,"o":""},"ą":{"ha":383,"x_min":0,"x_max":0,"o":""},"Ď":{"ha":383,"x_min":0,"x_max":0,"o":""},"ď":{"ha":383,"x_min":0,"x_max":0,"o":""},"Đ":{"ha":383,"x_min":0,"x_max":0,"o":""},"Ę":{"ha":383,"x_min":0,"x_max":0,"o":""},"ę":{"ha":383,"x_min":0,"x_max":0,"o":""},"Ě":{"ha":383,"x_min":0,"x_max":0,"o":""},"ě":{"ha":383,"x_min":0,"x_max":0,"o":""},"Ĺ":{"ha":383,"x_min":0,"x_max":0,"o":""},"ĺ":{"ha":383,"x_min":0,"x_max":0,"o":""},"Ľ":{"ha":383,"x_min":0,"x_max":0,"o":""},"ľ":{"ha":383,"x_min":0,"x_max":0,"o":""},"Ń":{"ha":383,"x_min":0,"x_max":0,"o":""},"ń":{"ha":383,"x_min":0,"x_max":0,"o":""},"Ň":{"ha":383,"x_min":0,"x_max":0,"o":""},"ň":{"ha":383,"x_min":0,"x_max":0,"o":""},"Ő":{"ha":383,"x_min":0,"x_max":0,"o":""},"ő":{"ha":383,"x_min":0,"x_max":0,"o":""},"Ŕ":{"ha":383,"x_min":0,"x_max":0,"o":""},"ŕ":{"ha":383,"x_min":0,"x_max":0,"o":""},"ř":{"ha":383,"x_min":0,"x_max":0,"o":""},"Ś":{"ha":383,"x_min":0,"x_max":0,"o":""},"ś":{"ha":383,"x_min":0,"x_max":0,"o":""},"Ţ":{"ha":383,"x_min":0,"x_max":0,"o":""},"ţ":{"ha":383,"x_min":0,"x_max":0,"o":""},"Ť":{"ha":383,"x_min":0,"x_max":0,"o":""},"ť":{"ha":383,"x_min":0,"x_max":0,"o":""},"Ů":{"ha":383,"x_min":0,"x_max":0,"o":""},"ů":{"ha":383,"x_min":0,"x_max":0,"o":""},"ű":{"ha":383,"x_min":0,"x_max":0,"o":""},"Ű":{"ha":383,"x_min":0,"x_max":0,"o":""},"Ź":{"ha":383,"x_min":0,"x_max":0,"o":""},"ź":{"ha":383,"x_min":0,"x_max":0,"o":""},"Ż":{"ha":383,"x_min":0,"x_max":0,"o":""},"ż":{"ha":383,"x_min":0,"x_max":0,"o":""},"Ŀ":{"ha":383,"x_min":0,"x_max":0,"o":""},"ŀ":{"ha":383,"x_min":0,"x_max":0,"o":""},"─":{"ha":383,"x_min":0,"x_max":0,"o":""},"│":{"ha":383,"x_min":0,"x_max":0,"o":""},"┌":{"ha":383,"x_min":0,"x_max":0,"o":""},"┐":{"ha":383,"x_min":0,"x_max":0,"o":""},"└":{"ha":383,"x_min":0,"x_max":0,"o":""},"┘":{"ha":383,"x_min":0,"x_max":0,"o":""},"├":{"ha":383,"x_min":0,"x_max":0,"o":""},"┤":{"ha":383,"x_min":0,"x_max":0,"o":""},"┬":{"ha":383,"x_min":0,"x_max":0,"o":""},"┴":{"ha":383,"x_min":0,"x_max":0,"o":""},"┼":{"ha":383,"x_min":0,"x_max":0,"o":""},"═":{"ha":383,"x_min":0,"x_max":0,"o":""},"║":{"ha":383,"x_min":0,"x_max":0,"o":""},"╒":{"ha":383,"x_min":0,"x_max":0,"o":""},"╓":{"ha":383,"x_min":0,"x_max":0,"o":""},"╔":{"ha":383,"x_min":0,"x_max":0,"o":""},"╕":{"ha":383,"x_min":0,"x_max":0,"o":""},"╖":{"ha":383,"x_min":0,"x_max":0,"o":""},"╗":{"ha":383,"x_min":0,"x_max":0,"o":""},"╘":{"ha":383,"x_min":0,"x_max":0,"o":""},"╙":{"ha":383,"x_min":0,"x_max":0,"o":""},"╚":{"ha":383,"x_min":0,"x_max":0,"o":""},"╛":{"ha":383,"x_min":0,"x_max":0,"o":""},"╜":{"ha":383,"x_min":0,"x_max":0,"o":""},"╝":{"ha":383,"x_min":0,"x_max":0,"o":""},"╞":{"ha":383,"x_min":0,"x_max":0,"o":""},"╟":{"ha":383,"x_min":0,"x_max":0,"o":""},"╠":{"ha":383,"x_min":0,"x_max":0,"o":""},"╡":{"ha":383,"x_min":0,"x_max":0,"o":""},"╢":{"ha":383,"x_min":0,"x_max":0,"o":""},"╣":{"ha":383,"x_min":0,"x_max":0,"o":""},"╤":{"ha":383,"x_min":0,"x_max":0,"o":""},"╥":{"ha":383,"x_min":0,"x_max":0,"o":""},"╦":{"ha":383,"x_min":0,"x_max":0,"o":""},"╧":{"ha":383,"x_min":0,"x_max":0,"o":""},"╨":{"ha":383,"x_min":0,"x_max":0,"o":""},"╩":{"ha":383,"x_min":0,"x_max":0,"o":""},"╪":{"ha":383,"x_min":0,"x_max":0,"o":""},"╫":{"ha":383,"x_min":0,"x_max":0,"o":""},"╬":{"ha":383,"x_min":0,"x_max":0,"o":""}}}
